<svg width="19" height="21" viewBox="0 0 19 21" fill="none" xmlns="http://www.w3.org/2000/svg">
<path d="M7.74405 20.8636C7.74405 20.8636 4.55703 19.4816 4.53403 15.8486C4.51103 12.2156 5.68205 7.82256 7.74405 4.93956C9.80705 2.05656 11.459 0.334572 14.06 0.897572C16.661 1.45957 17.188 3.77958 17.188 4.76458C17.188 5.74958 16.766 9.33356 13.884 12.3576C11.001 15.3806 8.207 16.0956 6.186 16.2586C3.772 16.4546 1.23004 14.7126 0.773041 10.1776C0.316041 5.64357 2.35503 3.88557 3.19803 3.11257C4.04203 2.33957 5.58806 1.74157 8.15506 2.90157C10.7211 4.06157 11.74 6.38156 11.776 7.18956C11.811 7.99856 11.9171 8.31456 11.0381 9.65056C11.0381 9.65056 12.76 7.89258 11.495 5.67858C10.23 3.46358 7.41704 1.63558 5.06204 1.84658C2.70704 2.05658 3.83705e-06 5.01059 0.0350038 9.15859C0.0700038 13.3066 2.30804 17.9206 7.76804 16.7166C10.099 16.2016 12.296 15.1926 15.29 11.8656C18.478 8.32459 19.3581 1.97258 15.7361 0.485585C12.3961 -0.885415 10.334 1.03859 9.772 1.46059C9.209 1.88259 6.56205 4.70457 5.29605 8.04357C4.07905 11.2556 3.83302 13.7966 3.98502 15.8266C4.13202 17.7886 5.22505 19.9146 7.74405 20.8636Z" fill="#1D1D1B"/>
</svg>
