<?xml version="1.0" encoding="utf-8"?>
<!-- Generator: Adobe Illustrator 16.0.0, SVG Export Plug-In . SVG Version: 6.00 Build 0)  -->
<!DOCTYPE svg PUBLIC "-//W3C//DTD SVG 1.1//EN" "http://www.w3.org/Graphics/SVG/1.1/DTD/svg11.dtd">
<svg version="1.1" xmlns="http://www.w3.org/2000/svg" xmlns:xlink="http://www.w3.org/1999/xlink" x="0px" y="0px" width="960px"
	 height="100.938px" viewBox="0 0 960 100.938" enable-background="new 0 0 960 100.938" xml:space="preserve">
<g id="Page_1_1_">
</g>
<g id="Page_2_1_">
</g>
<g id="Page_3_1_">
</g>
<g id="Page_4_1_">
</g>
<g id="Page_5_1_">
	<g>
		<path fill="#468EC0" d="M824.104,11.827c6.61,4.632,12.352,10.688,16.099,17.245c8.603,15.055-3.106,27.003-3.106,27.003
			c5.974-9.08,5.257-11.231,5.018-16.728c-0.213-4.876-5.697-17.835-19.111-26.205c-2.7,3.27-5.438,6.924-8.29,10.911
			c-14.019,19.595-21.984,49.466-21.824,74.159c0.003,0.532,0.03,1.048,0.053,1.566c1.874,0.582,3.781,0.964,5.7,1.159h6.182
			c13.686-1.223,32.365-6.258,51.629-26.463c19.595-20.551,22.463-44.926,22.463-51.616c0-5.393-2.334-16.678-12.492-22.859h-29.317
			C832.629,2.748,828.4,6.779,824.104,11.827z"/>
		<path fill="#468EC0" d="M818.687,10.757c-0.392-0.19-0.783-0.381-1.187-0.563c-17.443-7.885-27.959-3.822-33.693,1.435
			c-5.735,5.257-19.596,17.206-16.489,48.032c2.151,21.353,11.108,33.592,21.862,38.659c-0.007-0.088-0.017-0.177-0.023-0.265
			c-1.034-13.795,0.635-31.071,8.91-52.908C803.248,31.472,811.838,19.08,818.687,10.757z"/>
		<path fill="#468EC0" d="M762.299,52.73c-0.238-28.199,18.161-48.271,34.173-49.705c7.625-0.683,15.953,1.782,23.517,6.174
			c3.932-4.637,7.133-7.774,8.504-8.803c0.153-0.115,0.328-0.251,0.514-0.396H0v100.938h785.234
			C769.402,92.11,762.46,71.703,762.299,52.73z"/>
		<path fill="#468EC0" d="M877.746,0c13.864,15.854,6.834,50.5-11.736,71.13c-15.598,17.328-28.009,25.404-40.087,29.809H960V0
			H877.746z"/>
	</g>
</g>
<g id="Page_6_1_">
</g>
<g id="Page_7_1_">
</g>
<g id="Page_8_1_">
</g>
<g id="Page_9_1_">
</g>
<g id="Page_10_1_">
</g>
<g id="Page_11_1_">
</g>
<g id="Page_12_1_">
</g>
<g id="Page_13_1_">
</g>
<g id="Page_14_1_">
</g>
<g id="Page_15_1_">
</g>
<g id="Page_16_1_">
</g>
<g id="Page_17_1_">
</g>
<g id="Page_18_1_">
</g>
<g id="Page_19_1_">
</g>
<g id="Page_20_1_">
</g>
</svg>
