<?xml version="1.0" encoding="utf-8"?>
<!-- Generator: Adobe Illustrator 16.0.0, SVG Export Plug-In . SVG Version: 6.00 Build 0)  -->
<!DOCTYPE svg PUBLIC "-//W3C//DTD SVG 1.1//EN" "http://www.w3.org/Graphics/SVG/1.1/DTD/svg11.dtd">
<svg version="1.1" id="Layer_1" xmlns="http://www.w3.org/2000/svg" xmlns:xlink="http://www.w3.org/1999/xlink" x="0px" y="0px"
	 width="967.833px" height="139.807px" viewBox="0 0 967.833 139.807" enable-background="new 0 0 967.833 139.807"
	 xml:space="preserve">
<g>
	<path fill="#3C3C3B" d="M756.116,78.906c3.016,29.93,15.571,47.085,30.645,54.189c-0.01-0.123-0.024-0.247-0.033-0.37
		c-1.449-19.338,0.89-43.554,12.489-74.161c7.264-19.168,19.303-36.537,28.903-48.204c-0.549-0.267-1.098-0.534-1.663-0.79
		c-24.452-11.054-39.19-5.36-47.229,2.009C771.189,18.948,751.761,35.696,756.116,78.906z"/>
	<path fill="#3C3C3B" d="M835.713,11.859c9.265,6.492,17.313,14.981,22.564,24.172c12.059,21.102-4.354,37.85-4.354,37.85
		c8.374-12.728,7.369-15.742,7.034-23.446c-0.297-6.835-7.986-25-26.789-36.732c-3.784,4.583-7.62,9.705-11.619,15.294
		c-19.651,27.467-30.816,69.336-30.593,103.948c0.005,0.746,0.042,1.469,0.074,2.195c5.121,1.591,10.426,2.138,15.669,1.713
		c19.266-1.562,45.889-8.374,73.355-37.181c27.466-28.806,31.486-62.972,31.486-72.351c0-6.331-2.3-18.458-11.414-27.322h-53.708
		C843.477,3.286,839.614,7.275,835.713,11.859z"/>
	<path fill="#3C3C3B" d="M787.679,139.758c-26.769-10.08-38.351-41.522-38.597-70.567C748.763,31.541,772.15,4.243,793.768,0H0
		v139.807h787.688C787.685,139.791,787.682,139.774,787.679,139.758z"/>
	<path fill="#3C3C3B" d="M837.358,0h-29.289c7.364,1.209,14.854,4.099,21.875,8.176C832.751,4.864,835.288,2.104,837.358,0z"/>
	<path fill="#3C3C3B" d="M914.403,0c14.581,23.822,4.358,67.979-19.95,94.983c-26.055,28.945-45.767,39.479-65.905,44.823h139.285V0
		H914.403z"/>
</g>
</svg>
