<svg width="108" height="111" viewBox="0 0 108 111" fill="none" xmlns="http://www.w3.org/2000/svg">
<path d="M2.41415 110.922H75.8592C76.8732 110.922 77.6942 110.101 77.6952 109.087V96.232H74.0232V107.25H4.25015V4.42804H61.4681L61.1702 17.238C61.1492 18.254 61.9531 19.094 62.9691 19.116C62.9821 19.116 62.9941 19.118 63.0071 19.118H74.0241V33.806H77.6962V17.77C77.6882 17.709 77.6782 17.649 77.6652 17.589C77.7582 17.054 77.6082 16.506 77.2592 16.091L64.7462 1.40002C64.5912 1.22502 64.4041 1.08303 64.1931 0.979034C64.1391 0.953034 64.0842 0.928043 64.0272 0.907043C63.8362 0.829043 63.6332 0.784041 63.4282 0.773041C63.4002 0.771041 63.3741 0.754028 63.3471 0.754028H2.41315C1.39915 0.754028 0.577148 1.57603 0.577148 2.59003V109.085C0.578148 110.1 1.39915 110.922 2.41415 110.922ZM65.0671 7.56403L71.5631 15.443H64.8852L65.0671 7.56403Z" fill="#468EC0"/>
<path d="M65.9449 96.079C66.5369 96.338 67.2199 96.267 67.7459 95.891L80.5979 86.71C80.8949 86.498 81.1209 86.203 81.2489 85.862L107.211 16.936C109.219 11.61 106.529 5.66402 101.202 3.65602C101.098 3.61602 100.992 3.57801 100.885 3.54201C95.5499 1.75401 89.7639 4.55203 87.8539 9.84603L63.0909 79.42C62.9939 79.693 62.9629 79.984 62.9989 80.272L64.8569 94.631C64.9409 95.272 65.3539 95.821 65.9449 96.079ZM67.0249 82.759L75.5879 85.776L68.1049 91.122L67.0249 82.759ZM99.7019 7.02101C103.171 8.19801 105.027 11.964 103.851 15.434C103.827 15.503 103.801 15.574 103.775 15.643L103.423 16.577L90.8489 12.385L91.3139 11.079C92.5419 7.67003 96.2679 5.86801 99.7019 7.02101ZM89.6169 15.845L102.128 20.016L78.4449 82.887L67.1689 78.916L89.6169 15.845Z" fill="#468EC0"/>
</svg>
