<svg width="104" height="90" viewBox="0 0 104 90" fill="none" xmlns="http://www.w3.org/2000/svg">
<path d="M99.26 49.5479C97.862 49.5479 96.93 50.4799 96.93 51.8779V82.1459C96.93 83.5439 96 84.4759 94.602 84.4759H10.778C9.37998 84.4759 8.44797 83.5439 8.44797 82.1459V51.8779C8.44797 50.4799 7.51799 49.5479 6.12 49.5479C4.722 49.5479 3.79199 50.4799 3.79199 51.8779V82.1459C3.79199 86.1039 6.81798 89.1319 10.778 89.1319H94.602C98.56 89.1319 101.588 86.1039 101.588 82.1459V51.8779C101.588 50.4799 100.656 49.5479 99.26 49.5479Z" fill="#1D1D1B"/>
<path d="M96.9299 16.9499H8.44986C4.49186 16.9499 1.46387 19.9779 1.46387 23.9359V38.8379C1.46387 42.0959 3.79385 44.8899 6.81985 45.5899L43.3759 53.7399V61.1919C43.3759 62.5879 44.3059 63.5219 45.7039 63.5219H59.6739C61.0719 63.5219 62.0038 62.5899 62.0038 61.1919V53.7399L98.5598 45.5899C101.586 44.8899 103.914 42.0959 103.914 38.8379V23.9359C103.916 19.9779 100.89 16.9499 96.9299 16.9499ZM57.3479 58.8619H48.0339V49.5479H57.3479V58.8619ZM99.2599 38.8379C99.2599 40.0019 98.5619 40.9319 97.3959 41.1659L62.0038 49.0818V47.2198C62.0038 45.8238 61.0719 44.8899 59.6739 44.8899H45.7039C44.3059 44.8899 43.3759 45.8218 43.3759 47.2198V49.0818L7.98386 41.1659C6.81986 40.9339 6.12186 40.0019 6.12186 38.8379V23.9359C6.12186 22.5379 7.05386 21.6078 8.44986 21.6078H96.9299C98.3279 21.6078 99.2599 22.5379 99.2599 23.9359V38.8379Z" fill="#1D1D1B"/>
<path d="M36.3919 12.2939C37.7899 12.2939 38.722 11.3619 38.722 9.96387V7.63385C38.722 6.23785 39.652 5.30591 41.05 5.30591H64.334C65.732 5.30591 66.662 6.23785 66.662 7.63385V9.96387C66.662 11.3599 67.5939 12.2939 68.9919 12.2939C70.3879 12.2939 71.3199 11.3619 71.3199 9.96387V7.63385C71.3199 3.67585 68.292 0.649902 64.334 0.649902H41.05C37.092 0.649902 34.064 3.67585 34.064 7.63385V9.96387C34.062 11.3619 34.9939 12.2939 36.3919 12.2939Z" fill="#1D1D1B"/>
</svg>
