<svg width="84" height="80" viewBox="0 0 84 80" fill="none" xmlns="http://www.w3.org/2000/svg">
<path d="M83.2899 24.084C82.0799 10.718 72.6179 1.02197 60.7759 1.02197C52.8919 1.02197 45.6659 5.27199 41.6039 12.068C37.5799 5.17799 30.6499 1.02197 22.8919 1.02197C11.0479 1.02197 1.5879 10.718 0.3759 24.084C0.2759 24.678 -0.11612 27.78 1.07988 32.85C2.80588 40.162 6.78993 46.81 12.6039 52.066L41.5879 78.372L71.0639 52.074C76.8759 46.81 80.8599 40.16 82.5879 32.85C83.7819 27.79 83.3859 24.678 83.2899 24.084ZM79.4719 32.116C77.8939 38.796 74.2459 44.874 68.9259 49.694L41.6059 74.068L14.7539 49.702C9.42589 44.874 5.77792 38.796 4.19792 32.116C3.06592 27.318 3.53392 24.616 3.53392 24.592L3.55791 24.436C4.59791 12.726 12.7299 4.22601 22.8939 4.22601C30.3859 4.22601 36.9879 8.82599 40.1199 16.248L41.5979 19.74L43.0739 16.248C46.1519 8.94399 53.1059 4.22601 60.7839 4.22601C70.9419 4.22601 79.0739 12.726 80.1359 24.584C80.1359 24.616 80.6039 27.326 79.4719 32.116Z" fill="#1D1D1B"/>
<path d="M25.8398 10.75C17.0118 10.75 9.83984 17.93 9.83984 26.75C9.83984 27.634 10.5498 28.352 11.4338 28.352C12.3238 28.352 13.0339 27.634 13.0339 26.75C13.0339 19.688 18.7778 13.946 25.8398 13.946C26.7218 13.946 27.4338 13.234 27.4338 12.354C27.4338 11.46 26.7218 10.75 25.8398 10.75Z" fill="#1D1D1B"/>
</svg>
