<svg width="94" height="94" viewBox="0 0 94 94" fill="none" xmlns="http://www.w3.org/2000/svg">
<path d="M60.2816 78.7638C59.5816 79.4618 59.5816 80.5978 60.2816 81.2958C60.9796 81.9958 62.1156 81.9958 62.8116 81.2958C63.5116 80.5978 63.5116 79.4618 62.8116 78.7638C62.1136 78.0638 60.9796 78.0638 60.2816 78.7638Z" fill="#1D1D1B"/>
<path d="M32.8016 29.5618C32.7856 29.5638 32.7676 29.5658 32.7496 29.5678C32.7376 29.5678 32.7256 29.5678 32.7116 29.5698C30.3956 29.7398 28.2956 31.0258 27.0836 33.0278C27.0836 33.0278 20.5016 43.9138 18.4096 47.3758C15.0796 49.0838 5.60162 54.3098 4.52962 54.8258C4.41562 54.8798 4.30959 54.9458 4.20759 55.0238C0.743594 57.7058 0.485643 62.7418 3.50764 65.7638C5.81164 68.0698 9.38165 68.5278 12.1896 66.8758C12.4856 66.7018 18.4057 62.9338 22.0437 60.9178C24.7837 59.3978 27.2677 57.4378 29.4277 55.0878C30.3437 54.0878 30.6376 53.7698 31.1196 53.2478V68.1818L15.4917 75.9078C13.3557 76.9618 11.7257 78.8738 11.0177 81.1538C10.3077 83.4338 10.5677 85.9358 11.7297 88.0158C13.3217 90.8618 16.2356 92.5618 19.5256 92.5618H74.9316C78.1596 92.5618 81.0476 90.9098 82.6536 88.1438C83.8616 86.0598 84.1576 83.5418 83.4616 81.2338C82.7676 78.9218 81.1296 76.9818 78.9676 75.9118L63.3336 68.1838V53.2498C63.9336 53.9038 64.5237 54.5458 65.0797 55.1498C67.2037 57.4598 69.6676 59.3998 72.4096 60.9218C76.0616 62.9458 81.9577 66.6978 82.2677 66.8798C85.0637 68.5238 88.6336 68.0818 90.9456 65.7678C93.9756 62.7358 93.6997 57.7018 90.2457 55.0258C90.2097 54.9978 78.4257 48.5998 76.0437 47.3798C73.9497 43.9178 67.3696 33.0318 67.3696 33.0318C66.1856 31.0758 64.1396 29.8078 61.8636 29.5998C61.6696 29.5658 61.5396 29.5658 61.4036 29.5778C55.5656 29.5758 39.7517 29.5658 32.9077 29.5638C32.8677 29.5558 32.8396 29.5598 32.8016 29.5618ZM41.8596 33.1258L52.5976 33.1298V38.5078C52.5976 41.4678 50.1896 43.8778 47.2276 43.8778C44.2636 43.8778 41.8576 41.4738 41.8576 38.5078L41.8596 33.1258ZM47.2276 47.4578C52.1616 47.4578 56.1777 43.4438 56.1777 38.5098V33.1338L59.7576 33.1358V67.5038H34.7016C34.7016 66.5898 34.7016 33.4318 34.7016 33.1238L38.2816 33.1258V38.5098C38.2796 43.4518 42.2836 47.4578 47.2276 47.4578ZM20.3096 57.7858C16.6496 59.8138 10.7316 63.5718 10.3736 63.7898C8.97361 64.6138 7.19163 64.3838 6.03963 63.2318C4.59163 61.7838 4.61759 59.3518 6.27559 57.9538C8.09559 57.0278 17.6857 51.7358 20.4757 50.3398C20.7777 50.1878 21.0316 49.9558 21.2076 49.6658C22.9316 46.8178 30.1477 34.8798 30.1477 34.8798C30.4017 34.4578 30.7357 34.1018 31.1217 33.8198V47.9538C31.0897 47.9878 26.8076 52.6478 26.7896 52.6658C26.7856 52.6698 26.7817 52.6738 26.7777 52.6798C24.8837 54.7398 22.7076 56.4578 20.3096 57.7858ZM31.1217 85.3998C31.1217 83.4258 32.7276 81.8198 34.7016 81.8198H41.8616V88.9798H34.7016C32.7276 88.9798 31.1217 87.3738 31.1217 85.3998ZM77.3836 79.1158C78.6596 79.7458 79.6256 80.8918 80.0356 82.2598C80.4476 83.6238 80.2736 85.1118 79.5596 86.3418C78.5856 88.0158 76.8997 88.9778 74.9337 88.9778H45.4397V81.8178H54.3876C55.3777 81.8178 56.1796 81.0178 56.1796 80.0278C56.1796 79.0398 55.3777 78.2378 54.3876 78.2378H34.7016C30.7536 78.2378 27.5437 81.4478 27.5437 85.3958C27.5437 86.6998 27.8937 87.9218 28.5057 88.9758H19.5256C17.5216 88.9758 15.8197 87.9838 14.8557 86.2598C14.1697 85.0338 14.0176 83.5558 14.4376 82.2098C14.8556 80.8638 15.8177 79.7338 17.0797 79.1118L33.3316 71.0778H61.1296L77.3836 79.1158ZM64.3096 34.8778C64.3096 34.8778 71.5256 46.8158 73.2496 49.6658C73.4236 49.9558 73.6777 50.1898 73.9797 50.3398C76.7517 51.7238 86.3756 57.0358 88.1816 57.9518C89.8436 59.3518 89.8617 61.7858 88.4177 63.2298C87.2657 64.3818 85.4857 64.6098 84.0957 63.7938C83.6997 63.5538 77.8517 59.8358 74.1477 57.7838C71.7437 56.4498 69.5797 54.7458 67.7197 52.7198C66.3597 51.2398 64.6836 49.4178 63.3376 47.9518V33.8258C63.7236 34.1058 64.0576 34.4618 64.3096 34.8778Z" fill="#1D1D1B"/>
<path d="M59.7577 13.4518C59.7577 6.54384 54.1377 0.923828 47.2297 0.923828C40.3217 0.923828 34.7017 6.54384 34.7017 13.4518C34.7017 20.3598 40.3217 25.9798 47.2297 25.9798C54.1377 25.9798 59.7577 20.3598 59.7577 13.4518ZM38.2797 13.4518C38.2797 8.51784 42.2937 4.50385 47.2277 4.50385C52.1617 4.50385 56.1777 8.51784 56.1777 13.4518C56.1777 18.3858 52.1637 22.4018 47.2277 22.4018C42.2917 22.4018 38.2797 18.3858 38.2797 13.4518Z" fill="#1D1D1B"/>
</svg>
