<svg width="84" height="86" viewBox="0 0 84 86" fill="none" xmlns="http://www.w3.org/2000/svg">
<path d="M41.9378 1.58203C18.8858 1.58203 0.133789 20.334 0.133789 43.388C0.133789 66.438 18.8858 85.192 41.9378 85.192C64.9898 85.192 83.7418 66.438 83.7418 43.388C83.7438 20.334 64.9898 1.58203 41.9378 1.58203ZM41.9378 80.672C31.6978 80.672 22.4078 76.52 15.6618 69.814C12.9678 67.136 10.6818 64.048 8.90179 60.656C6.18979 55.49 4.65381 49.614 4.65381 43.388C4.65381 22.828 21.3798 6.10202 41.9398 6.10202C51.6898 6.10202 60.5798 9.86604 67.2298 16.018C70.6798 19.206 73.5258 23.036 75.5798 27.316C77.9158 32.184 79.2258 37.638 79.2258 43.39C79.2238 63.946 62.4978 80.672 41.9378 80.672Z" fill="#1D1D1B"/>
<path d="M27.6498 33.896C30.0778 33.896 32.0558 35.76 32.0558 38.302H36.5758C36.5758 33.218 32.5718 29.376 27.6518 29.376C22.7298 29.376 18.7278 33.218 18.7278 38.302H23.2458C23.2438 35.76 25.2198 33.896 27.6498 33.896Z" fill="#1D1D1B"/>
<path d="M56.2277 33.896C58.6577 33.896 60.6337 35.76 60.6337 38.302H65.1537C65.1537 33.218 61.1497 29.376 56.2277 29.376C51.3077 29.376 47.3037 33.218 47.3037 38.302H51.8237C51.8217 35.76 53.7997 33.896 56.2277 33.896Z" fill="#1D1D1B"/>
<path d="M41.8579 66.548C50.6019 66.548 58.9819 62.078 63.7779 54.654L59.9819 52.2C55.5759 59.018 47.5139 62.822 39.4479 61.892C33.1599 61.166 27.3439 57.544 23.8919 52.2L20.0979 54.654C24.2759 61.118 31.3139 65.502 38.9319 66.38C39.9099 66.492 40.8859 66.548 41.8579 66.548Z" fill="#1D1D1B"/>
</svg>
