<svg width="92" height="112" viewBox="0 0 92 112" fill="none" xmlns="http://www.w3.org/2000/svg">
<path d="M65.2719 74.022C71.1059 68.692 74.5239 61.15 74.5239 53.306C74.5239 37.92 61.9539 25.348 46.5659 25.348C31.1799 25.348 18.6079 37.92 18.6079 53.306C18.6079 61.352 22.128 69.096 28.062 74.326C32.486 78.75 32.0839 88.204 31.9839 88.304C31.9839 88.806 32.0839 89.21 32.4859 89.612C32.7879 89.914 33.2899 90.114 33.6939 90.114H59.3379C59.8399 90.114 60.2439 89.912 60.5459 89.612C60.8479 89.312 61.0479 88.808 61.0479 88.304C61.0479 88.204 60.5459 78.75 64.9699 74.326C65.0719 74.224 65.1719 74.124 65.2719 74.022ZM62.6579 71.71C62.5579 71.81 62.3559 72.01 62.3559 72.112C58.4339 76.336 57.7299 83.276 57.6299 86.594H35.4039C35.3039 83.274 34.5999 76.034 30.3759 71.71C25.0459 67.084 21.9279 60.344 21.9279 53.206C21.9279 39.628 32.8899 28.666 46.4679 28.666C60.0459 28.666 71.0079 39.628 71.0079 53.206C71.0059 60.346 67.9879 67.084 62.6579 71.71Z" fill="#1D1D1B"/>
<path d="M46.4658 32.488C45.5598 32.488 44.7578 33.292 44.7578 34.198C44.7578 35.102 45.5618 35.908 46.4658 35.908C56.6238 35.908 64.7678 44.154 64.7678 54.21C64.7678 55.116 65.5738 55.92 66.4778 55.92C67.3818 55.92 68.1858 55.116 68.1858 54.21C68.2898 42.244 58.5338 32.488 46.4658 32.488Z" fill="#1D1D1B"/>
<path d="M61.8539 96.25C61.8539 93.938 59.9419 92.026 57.6299 92.026H35.3038C32.9918 92.026 31.0798 93.938 31.0798 96.25C31.0798 98.562 32.9918 100.474 35.3038 100.474H57.5298C59.9418 100.372 61.8539 98.562 61.8539 96.25ZM57.6299 96.954H35.3038C34.9018 96.954 34.4999 96.652 34.4999 96.15C34.4999 95.648 34.8018 95.346 35.3038 95.346H57.5298C57.9318 95.346 58.3339 95.648 58.3339 96.15C58.3339 96.652 58.0319 96.954 57.6299 96.954Z" fill="#1D1D1B"/>
<path d="M54.3099 102.182H38.6219C36.3079 102.182 34.3979 104.092 34.3979 106.406C34.3979 108.718 36.3099 110.63 38.6219 110.63H54.3099C56.6219 110.63 58.5339 108.718 58.5339 106.406C58.5339 103.994 56.6239 102.182 54.3099 102.182ZM54.3099 107.11H38.6219C38.2179 107.11 37.8179 106.808 37.8179 106.306C37.8179 105.804 38.1199 105.502 38.6219 105.502H54.3099C54.7119 105.502 55.1139 105.804 55.1139 106.306C55.1139 106.808 54.7139 107.11 54.3099 107.11Z" fill="#1D1D1B"/>
<path d="M48.1758 15.292V3.62604C48.1758 2.72004 47.3718 1.91602 46.4658 1.91602C45.5598 1.91602 44.7578 2.72004 44.7578 3.62604V15.292C44.7578 16.198 45.5618 17.002 46.4658 17.002C47.4718 17 48.1758 16.198 48.1758 15.292Z" fill="#1D1D1B"/>
<path d="M74.9279 10.564C74.1239 9.96002 73.1179 10.262 72.6159 10.966L66.1779 20.622C65.5759 21.426 65.7759 22.532 66.5819 23.036C66.8819 23.238 67.1839 23.338 67.4879 23.338C68.0899 23.338 68.594 23.036 68.896 22.534L75.3319 12.88C75.9339 12.174 75.7319 11.068 74.9279 10.564Z" fill="#1D1D1B"/>
<path d="M26.052 22.934C26.354 22.934 26.656 22.834 26.958 22.632C27.762 22.13 27.962 21.024 27.46 20.218L21.224 10.462C20.722 9.65802 19.616 9.45601 18.81 9.96001C18.004 10.464 17.804 11.57 18.308 12.374L24.544 22.13C24.944 22.734 25.448 22.934 26.052 22.934Z" fill="#1D1D1B"/>
<path d="M2.11587 31.08L12.2739 36.612C12.5759 36.712 12.7759 36.812 13.0779 36.812C13.6819 36.812 14.2859 36.512 14.5859 35.908C14.9879 35.102 14.6859 33.996 13.8819 33.594L3.7239 28.062C2.9199 27.658 1.81189 27.962 1.41189 28.766C0.907886 29.572 1.20987 30.678 2.11587 31.08Z" fill="#1D1D1B"/>
<path d="M79.8539 36.812C80.1559 36.812 80.4579 36.712 80.6579 36.612L90.9159 31.08C91.7199 30.678 92.0219 29.572 91.6199 28.768C91.2179 27.964 90.1119 27.66 89.3059 28.064L79.0479 33.596C78.2439 33.998 77.9419 35.104 78.3439 35.91C78.6479 36.512 79.2519 36.812 79.8539 36.812Z" fill="#1D1D1B"/>
</svg>
