<svg width="108" height="94" viewBox="0 0 108 94" fill="none" xmlns="http://www.w3.org/2000/svg">
<path d="M64.8 60.9819C64.512 60.8979 64.212 60.8779 63.918 60.9219C63.882 60.9199 63.848 60.9199 63.814 60.9179C66.472 58.3219 68.126 54.7019 68.126 50.6999V30.3079C68.126 29.1759 67.21 28.2599 66.08 28.2599H50.914C44.644 28.2599 39.544 33.3599 39.544 39.6299V50.6999C39.544 54.6999 41.198 58.3219 43.856 60.9179C43.82 60.9179 43.786 60.9199 43.752 60.9199C43.458 60.8779 43.156 60.8959 42.868 60.9819C32.284 61.9319 23.958 70.8519 23.958 81.6799V91.7339C23.958 92.8639 24.874 93.7819 26.004 93.7819H81.662C82.792 93.7819 83.71 92.8639 83.71 91.7339V81.6819C83.71 70.8519 75.386 61.9319 64.8 60.9819ZM59.272 64.9919L53.834 70.4299L48.396 64.9919H59.272ZM43.638 39.6279C43.638 35.6179 46.9 32.3539 50.912 32.3539H64.032V37.8339C64.032 40.6019 61.78 42.8559 59.01 42.8559H43.638V39.6279ZM43.638 50.6999V46.9499H59.01C60.864 46.9499 62.59 46.3919 64.032 45.4359V50.6979C64.032 56.3199 59.458 60.8959 53.834 60.8959C48.212 60.8959 43.638 56.3219 43.638 50.6999ZM79.614 89.6839H28.052V83.7919H44.76C45.89 83.7919 46.808 82.8759 46.808 81.7458C46.808 80.6158 45.892 79.6979 44.76 79.6979H28.174C29.08 72.0879 35.124 66.0359 42.728 65.1179L52.384 74.7739C52.784 75.1739 53.308 75.3739 53.832 75.3739C54.356 75.3739 54.88 75.1739 55.28 74.7739L64.936 65.1179C73.192 66.1139 79.612 73.1599 79.612 81.6799L79.614 89.6839Z" fill="black"/>
<path d="M53.8341 79.6979C53.2961 79.6979 52.7681 79.9179 52.3861 80.2979C52.0041 80.6778 51.7861 81.2058 51.7861 81.7458C51.7861 82.2839 52.0041 82.8139 52.3861 83.1938C52.7661 83.5718 53.2961 83.7919 53.8341 83.7919C54.3741 83.7919 54.9021 83.5738 55.2821 83.1938C55.6621 82.8139 55.8821 82.2839 55.8821 81.7458C55.8821 81.2058 55.6641 80.6799 55.2821 80.2979C54.9001 79.9158 54.3721 79.6979 53.8341 79.6979Z" fill="black"/>
<path d="M51.8121 15.2899V20.2899C51.8121 21.4199 52.7281 22.3379 53.8601 22.3379C54.9921 22.3379 55.9081 21.4219 55.9081 20.2899V15.2899C59.2081 14.3879 61.6401 11.3659 61.6401 7.78589C61.6401 3.49589 58.1481 0.00390625 53.8601 0.00390625C49.5701 0.00390625 46.0801 3.49589 46.0801 7.78589C46.0801 11.3659 48.5121 14.3879 51.8121 15.2899ZM53.8601 4.0979C55.8921 4.0979 57.5461 5.75187 57.5461 7.78387C57.5461 9.81587 55.8921 11.4698 53.8601 11.4698C51.8281 11.4698 50.1741 9.81587 50.1741 7.78387C50.1741 5.75187 51.8281 4.0979 53.8601 4.0979Z" fill="black"/>
<path d="M80.62 32.3659C81.144 32.3659 81.668 32.1659 82.068 31.7659L85.602 28.2319C86.764 28.8979 88.086 29.2559 89.462 29.2559C91.54 29.2559 93.494 28.4459 94.964 26.9759C96.434 25.5079 97.2439 23.5539 97.2439 21.4759C97.2439 19.3979 96.434 17.4439 94.964 15.9739C93.494 14.5039 91.54 13.6938 89.462 13.6938C87.384 13.6938 85.43 14.5039 83.96 15.9739C81.428 18.5059 81.012 22.3639 82.708 25.3339L79.172 28.8719C78.374 29.6699 78.374 30.9679 79.172 31.7679C79.572 32.1659 80.098 32.3659 80.62 32.3659ZM86.858 18.8699C87.576 18.1519 88.52 17.7919 89.464 17.7919C90.408 17.7919 91.352 18.1519 92.07 18.8699C92.766 19.5659 93.15 20.4919 93.15 21.4759C93.15 22.4599 92.766 23.3858 92.07 24.0818C90.634 25.5198 88.294 25.5198 86.858 24.0818C85.42 22.6458 85.42 20.3079 86.858 18.8699Z" fill="black"/>
<path d="M98.47 49.3139C94.888 49.3139 91.866 51.7479 90.966 55.0479H85.966C84.836 55.0479 83.918 55.9639 83.918 57.0959C83.918 58.2259 84.834 59.1419 85.966 59.1419H90.966C91.868 62.4419 94.89 64.8759 98.47 64.8759C102.762 64.8759 106.252 61.3859 106.252 57.0959C106.25 52.8039 102.76 49.3139 98.47 49.3139ZM98.47 60.7819C96.438 60.7819 94.786 59.1279 94.786 57.0959C94.786 55.0619 96.44 53.4099 98.47 53.4099C100.504 53.4099 102.156 55.0619 102.156 57.0959C102.156 59.1259 100.502 60.7819 98.47 60.7819Z" fill="black"/>
<path d="M78.1999 59.1419C78.7379 59.1419 79.2659 58.9239 79.6479 58.5419C80.0279 58.1619 80.2479 57.6319 80.2479 57.0939C80.2479 56.5539 80.0299 56.0299 79.6479 55.6459C79.2679 55.2659 78.7379 55.0459 78.1999 55.0459C77.6599 55.0459 77.1318 55.2639 76.7518 55.6459C76.3718 56.0259 76.1519 56.5539 76.1519 57.0939C76.1519 57.6339 76.3698 58.1619 76.7518 58.5419C77.1318 58.9239 77.6599 59.1419 78.1999 59.1419Z" fill="black"/>
<path d="M21.704 54.9958H16.704C15.802 51.6959 12.78 49.2619 9.20001 49.2619C4.91001 49.2619 1.41797 52.7519 1.41797 57.0419C1.41797 61.3339 4.91001 64.8239 9.20001 64.8239C12.782 64.8239 15.804 62.3899 16.704 59.0899H21.704C22.834 59.0899 23.75 58.1739 23.75 57.0419C23.75 55.9139 22.834 54.9958 21.704 54.9958ZM9.198 60.7279C7.166 60.7279 5.51196 59.0739 5.51196 57.0419C5.51196 55.0099 7.166 53.3559 9.198 53.3559C11.23 53.3559 12.884 55.0099 12.884 57.0419C12.884 59.0759 11.23 60.7279 9.198 60.7279Z" fill="black"/>
<path d="M18.0799 29.0599C19.4559 29.0599 20.7779 28.7019 21.9419 28.0339L25.4759 31.5699C25.8759 31.9699 26.4 32.1699 26.924 32.1699C27.448 32.1699 27.972 31.9699 28.372 31.5699C29.172 30.7719 29.172 29.4739 28.372 28.6739L24.8379 25.1399C25.5039 23.9759 25.862 22.6559 25.862 21.2779C25.862 19.1999 25.052 17.2459 23.582 15.7779C22.112 14.3079 20.1579 13.4979 18.0799 13.4979C16.0019 13.4979 14.048 14.3079 12.578 15.7759C9.54399 18.8119 9.54399 23.7459 12.578 26.7799C14.048 28.2499 16.0019 29.0599 18.0799 29.0599ZM15.474 18.6719C16.192 17.9539 17.1359 17.5939 18.0799 17.5939C19.0239 17.5939 19.968 17.9519 20.686 18.6719C21.382 19.3679 21.766 20.2939 21.766 21.2779C21.766 22.2619 21.382 23.1879 20.686 23.8819C19.248 25.3199 16.91 25.3199 15.474 23.8819C14.036 22.4479 14.036 20.1099 15.474 18.6719Z" fill="black"/>
</svg>
