<svg width="98" height="98" viewBox="0 0 98 98" fill="none" xmlns="http://www.w3.org/2000/svg">
<path d="M85.9159 23.2459C85.9839 23.2539 86.0499 23.258 86.1199 23.258C86.6019 23.258 87.0699 23.0679 87.4139 22.7199L97.288 12.846C97.79 12.344 97.9559 11.5959 97.7139 10.9279C97.4719 10.2599 96.866 9.79198 96.158 9.72798L88.7759 9.05599L88.1039 1.67397C88.0399 0.965967 87.5719 0.359951 86.9039 0.119951C86.2359 -0.120049 85.488 0.0439767 84.986 0.545977L75.1119 10.4199C74.7179 10.8139 74.5259 11.366 74.5859 11.918L75.46 19.786L73.6119 21.6339C66.7819 15.3879 57.826 11.4319 47.97 10.9959V7.51796C47.97 6.50596 47.1499 5.68593 46.1379 5.68593C45.1279 5.68593 44.3079 6.50596 44.3079 7.51796V10.994C23.2939 11.928 6.36991 28.852 5.43591 49.866H1.95996C0.949961 49.866 0.12793 50.686 0.12793 51.698C0.12793 52.71 0.947961 53.53 1.95996 53.53H5.43591C6.36991 74.542 23.2939 91.466 44.3079 92.4V95.8779C44.3079 96.8899 45.1279 97.71 46.1379 97.71C47.1499 97.71 47.97 96.8899 47.97 95.8779V92.4C68.982 91.466 85.9059 74.542 86.8419 53.53H90.3179C91.3299 53.53 92.1499 52.71 92.1499 51.698C92.1499 50.688 91.3299 49.866 90.3179 49.866H86.8419C86.4039 40.01 82.4499 31.054 76.2019 24.224L78.0499 22.3759L85.9159 23.2459ZM84.8099 5.90193L85.2659 10.9099C85.3459 11.7899 86.044 12.4879 86.924 12.5679L91.9319 13.0219L85.444 19.51L79.0339 18.7979L78.3219 12.388L84.8099 5.90193ZM83.1759 49.864H80.5959C79.5859 49.864 78.7639 50.6839 78.7639 51.6959C78.7639 52.7079 79.5839 53.528 80.5959 53.528H83.1759C82.2479 72.522 66.964 87.806 47.97 88.734V86.1539C47.97 85.1419 47.1499 84.322 46.1379 84.322C45.1259 84.322 44.3059 85.1419 44.3059 86.1539V88.734C25.3119 87.806 10.0279 72.522 9.0979 53.528H11.678C12.688 53.528 13.5099 52.7079 13.5099 51.6959C13.5099 50.6859 12.69 49.864 11.678 49.864H9.0979C10.0259 30.87 25.3099 15.586 44.3059 14.658V17.2379C44.3059 18.2499 45.1259 19.07 46.1359 19.07C47.1479 19.07 47.9679 18.2499 47.9679 17.2379V14.658C56.8159 15.09 64.8559 18.638 71.0179 24.224L65.5079 29.734C60.3399 25.17 53.5559 22.396 46.1339 22.396C29.9779 22.396 16.8339 35.5399 16.8339 51.6959C16.8339 67.8539 29.9779 80.9959 46.1339 80.9959C62.2899 80.9959 75.434 67.8539 75.434 51.6959C75.434 44.2759 72.66 37.4919 68.0959 32.3239L73.6079 26.814C79.1959 32.974 82.7419 41.016 83.1759 49.864ZM44.8439 52.9899C45.2019 53.3479 45.6699 53.528 46.1379 53.528C46.6059 53.528 47.0759 53.3479 47.4319 52.9899L57.3779 43.044C59.2259 45.442 60.33 48.4399 60.33 51.6939C60.33 59.5199 53.9639 65.888 46.1379 65.888C38.3119 65.888 31.9459 59.5199 31.9459 51.6939C31.9459 43.8679 38.3139 37.502 46.1379 37.502C49.3919 37.502 52.3919 38.6039 54.7899 40.4539L44.8439 50.4C44.1279 51.116 44.1279 52.2759 44.8439 52.9899ZM46.1379 33.84C36.2939 33.84 28.2839 41.8499 28.2839 51.6939C28.2839 61.5399 36.2939 69.5499 46.1379 69.5499C55.9839 69.5499 63.9919 61.5399 63.9919 51.6939C63.9919 47.4299 62.4879 43.5119 59.9839 40.4379L65.5079 34.916C69.4119 39.416 71.7759 45.2839 71.7759 51.6939C71.7759 65.8319 60.2759 77.3319 46.1379 77.3319C31.9999 77.3319 20.4999 65.8319 20.4999 51.6939C20.4999 37.5579 31.9999 26.056 46.1379 26.056C52.5479 26.056 58.418 28.4219 62.918 32.3259L57.3959 37.848C54.3199 35.344 50.4019 33.84 46.1379 33.84Z" fill="#1D1D1B"/>
</svg>
