<svg width="72" height="110" viewBox="0 0 72 110" fill="none" xmlns="http://www.w3.org/2000/svg">
<path d="M67.0618 67.06C66.1598 67.268 65.5979 68.166 65.8039 69.064C68.2759 79.788 64.7299 90.4981 57.4539 97.6221C58.0479 92.0741 59.0819 91.468 60.2099 89.194C62.8079 83.998 61.1778 81.4601 59.3538 80.2421C57.7738 79.1941 56.0019 79.338 54.1799 79.556C44.4399 80.708 37.7078 78.7101 34.1758 73.6221C33.1338 72.1221 32.7719 69.544 33.4599 68.516C34.0959 67.578 35.8659 68.3701 36.7899 68.7861C37.8919 69.2821 39.1398 69.844 40.3958 69.75C42.8418 69.564 44.5679 67.092 45.1419 64.874C45.6539 62.876 45.5278 60.884 46.0458 59.304C47.0478 56.264 49.7018 54.8981 53.1658 50.6741C57.7698 53.7681 61.4138 58.0361 63.7538 63.0741C64.1418 63.9201 65.1398 64.278 65.9738 63.8881C66.8118 63.5 67.1778 62.5061 66.7918 61.668C64.2938 56.286 60.3919 51.562 55.2779 48.06C56.5559 47.066 57.3039 45.3661 56.9699 43.5921L55.5739 36.1961L57.9859 27.2081L67.1298 25.9361C69.2558 25.6401 70.7698 23.8141 70.7698 21.7601C70.7698 21.3461 70.6578 19.292 69.0518 18.106C68.1438 17.436 67.0419 17.1361 65.9299 17.2901L58.2018 18.362C57.9378 17.862 57.6199 17.3921 57.2559 16.9621C63.9259 13.7381 62.9039 4.01006 55.8659 2.11806C48.8179 0.23406 43.1158 8.12206 47.2078 14.2301C46.7598 14.3901 46.3278 14.5881 45.9118 14.8281C39.8158 9.79005 39.9258 9.67606 39.0298 9.26406C37.5158 8.30606 35.4999 8.34404 34.0059 9.50804L26.8839 15.09C26.3899 14.78 25.8698 14.5281 25.3278 14.3381C26.6278 12.4581 27.1139 10.046 26.4919 7.72005C24.6499 0.82205 15.3919 -0.31196 11.8619 5.79204C9.53988 9.82004 11.1158 14.9581 15.3478 16.9881C15.0238 17.3581 14.7379 17.76 14.4879 18.188L6.86383 16.856C2.95983 16.172 0.549878 20.752 2.63788 23.722C3.28588 24.646 4.25388 25.262 5.36188 25.456L14.4799 27.0481L16.9578 36.3L15.5599 43.692C15.0899 46.174 16.7279 48.576 19.2099 49.042C19.5859 49.052 21.7899 49.9481 23.9339 48.0401C32.1859 44.4161 41.8419 44.536 50.2619 48.942C49.4119 49.97 49.3019 50.1221 47.6519 51.7301C45.8339 53.4961 43.7759 55.4941 42.8679 58.2601C42.1859 60.3381 42.3439 62.3141 41.9019 64.0401C41.5979 65.2141 40.7498 66.368 40.1458 66.412C39.3958 66.47 37.4678 65.244 35.9378 64.908C32.8338 64.234 31.3118 65.716 30.6818 66.658C29.0418 69.114 29.7938 73.178 31.4318 75.534C35.7238 81.714 43.5118 84.1861 54.5778 82.8801L54.6059 82.8761C55.7179 82.744 56.8719 82.608 57.5079 83.034C59.2799 84.2 57.2938 87.686 56.2078 89.534C54.6178 92.25 54.0778 96.5601 53.8858 100.622C46.0658 106.228 35.7138 107.926 26.2958 104.668C29.3858 99.328 33.4418 92.158 32.0418 86.728C30.3998 80.368 25.3339 73.984 18.4859 69.646C10.3119 64.486 10.9798 64.938 8.61981 62.994C10.4698 59.052 13.1639 55.484 16.5739 52.616C17.2819 52.02 17.3718 50.964 16.7758 50.258C16.1798 49.55 15.1279 49.458 14.4199 50.054C-0.63414 62.736 -1.49411 85.2001 11.5959 99.0581C11.8279 99.3061 12.1179 99.464 12.4239 99.538C14.0379 99.922 15.1678 97.966 14.0318 96.762C6.2878 88.554 3.75181 76.83 7.31781 66.254C9.48581 67.998 9.07589 67.6621 16.6999 72.4761C22.8439 76.3681 27.3699 82.01 28.8039 87.564C29.8899 91.782 26.0259 98.456 23.2059 103.328C23.1919 103.35 23.1819 103.372 23.1679 103.394C21.7019 102.698 20.2199 101.846 18.8399 100.89C18.0779 100.364 17.0338 100.554 16.5098 101.316C15.9838 102.074 16.1739 103.118 16.9359 103.644C28.4299 111.568 42.9759 111.45 54.0339 104.556C66.1359 97.004 72.3499 82.534 69.0759 68.318C68.8599 67.414 67.9618 66.85 67.0618 67.06ZM57.6419 6.98604C59.9519 10.322 57.5859 14.5401 53.8259 14.5401C51.2099 14.5401 49.0878 12.418 49.0878 9.80004C49.0858 5.25804 54.9279 3.30204 57.6419 6.98604ZM17.5318 5.15206C17.5358 5.15206 17.5539 5.14606 17.7899 5.09606C20.6759 4.54006 23.4158 6.76005 23.4158 9.75405C23.4158 13.94 18.3418 16.068 15.3578 13.136C12.7938 10.534 13.9778 6.10606 17.5318 5.15206ZM29.7918 42.7261C28.4038 42.9921 27.0319 43.3481 25.6799 43.7901C25.9059 42.5761 26.1599 41.0141 26.5499 38.9541C26.5499 38.9541 26.5519 38.958 26.5539 38.96C26.5659 38.972 26.5759 38.9861 26.5859 38.9961C26.5819 38.9941 26.5799 38.9881 26.5759 38.9841C26.5799 38.9881 26.5838 38.994 26.5878 39V39.0021C26.5898 39.0041 26.5938 39.0101 26.5978 39.0141C26.5958 39.0121 26.5958 39.01 26.5938 39.008C26.5958 39.01 26.5979 39.014 26.5999 39.016L26.5978 39.0141C26.6018 39.0201 26.6079 39.026 26.6159 39.034C26.6139 39.032 26.6118 39.0301 26.6078 39.0261C26.6118 39.0321 26.6159 39.036 26.6179 39.038C26.8219 39.272 27.5458 40.1121 29.7918 42.7261ZM35.2939 42.1001C34.7699 42.5201 34.1158 42.52 33.6298 42.21C33.3178 42.006 33.7998 42.462 26.8058 34.36C26.4058 33.898 25.7758 33.702 25.1818 33.86C24.5918 34.018 24.1419 34.5021 24.0279 35.1041C22.0479 45.5301 22.2738 45.36 21.5838 45.826C21.0278 46.206 20.4579 46.0221 20.4079 46.0221L19.7958 45.904C19.0358 45.762 18.5499 45.0241 18.6899 44.2821C20.1679 36.1741 20.2959 36.452 20.1279 35.822L17.2939 25.2381C17.1339 24.6381 16.6418 24.1861 16.0298 24.0781C5.62385 22.1521 5.69783 22.528 5.24383 21.8841C4.91383 21.4141 5.11381 20.984 5.11981 20.832C5.20781 20.324 5.69983 19.904 6.31183 19.994L15.1298 21.5361C15.8898 21.6681 16.6339 21.238 16.9019 20.516C17.9959 17.536 20.9738 17.5221 21.6658 17.2121C23.1398 16.8561 24.6998 17.256 25.8338 18.284C26.4118 18.806 27.2779 18.834 27.8879 18.356C27.8879 18.358 27.8879 18.3581 27.8919 18.3541C27.8939 18.3521 27.8979 18.348 27.9039 18.344C27.9019 18.346 27.8978 18.348 27.8958 18.352C27.9018 18.348 27.9078 18.344 27.9118 18.34C27.9158 18.336 27.9279 18.328 27.9339 18.322C27.9319 18.324 27.9299 18.324 27.9279 18.326C27.9359 18.322 27.9379 18.318 27.9439 18.314C27.9519 18.308 27.9578 18.304 27.9678 18.296C28.3058 18.03 29.8679 16.806 35.9619 12.03C36.4099 11.68 37.0638 11.7001 37.4898 12.1041C38.0318 12.6181 37.9499 13.46 37.4039 13.886C32.4659 17.758 31.8039 18.276 32.3359 17.858C31.3999 18.592 30.0999 19.612 28.3239 21.004C27.8199 21.398 27.6019 22.054 27.7679 22.672C30.7719 33.68 30.4459 33.162 30.8759 33.668C36.4559 40.156 36.1259 39.728 36.2419 40.008C36.7699 41.222 35.4359 41.9081 35.2939 42.1001ZM41.4759 22.5L38.9959 31.75L36.2178 34.978L33.5339 31.856L31.1238 22.856L36.6899 18.494L41.4759 22.5ZM46.9239 43.8801C45.9539 43.5501 44.9699 43.2701 43.9719 43.0321C43.5259 42.9261 43.0779 42.828 42.6279 42.74L45.9759 38.8501C45.9759 38.8461 45.9759 38.8481 45.9759 38.8541V38.8501C45.9779 38.8581 45.9779 38.8661 45.9799 38.8721C45.9799 38.8741 45.9799 38.876 45.9799 38.878V38.8801C45.9819 38.8901 45.9839 38.904 45.9879 38.922C45.9879 38.916 45.9859 38.9121 45.9859 38.9061C45.9859 38.9141 45.9878 38.922 45.9898 38.93V38.9321C45.9898 38.9361 45.9919 38.938 45.9919 38.942V38.938C45.9919 38.94 45.9919 38.9421 45.9919 38.9461C45.9939 38.9541 45.9938 38.9581 45.9938 38.9581C46.0538 39.2681 46.2659 40.3861 46.9239 43.8801ZM48.4959 35.0021C48.2499 33.6861 46.5839 33.2481 45.7199 34.2561L39.4279 41.568C39.9959 39.078 38.3458 37.4741 38.3218 37.4241C41.6558 33.4701 41.8199 33.536 41.9819 32.926L44.8178 22.3421C44.9798 21.7421 44.7778 21.104 44.3018 20.706L39.2538 16.482C39.3538 16.382 40.1759 15.922 40.7119 14.638L44.7958 18.054C45.3858 18.548 46.2479 18.55 46.8399 18.056C49.3439 15.972 52.0018 17.562 52.8378 17.646C54.1858 18.118 55.2539 19.2201 55.6959 20.5961C55.9319 21.3361 56.6679 21.796 57.4339 21.688L66.3659 20.4461C67.7339 20.2621 68.0619 22.59 66.6899 22.774L56.4979 24.1901C55.8619 24.2801 55.3399 24.738 55.1739 25.358C52.2739 36.3881 52.2499 35.7881 52.3719 36.4281L53.8338 44.18C53.9018 44.542 53.8238 44.91 53.6138 45.218C53.4038 45.528 53.0879 45.7341 52.7259 45.8021L51.8018 45.9661C51.3018 45.9981 50.8319 45.7541 50.5639 45.3501C50.4619 45.2021 50.3898 45.0261 50.3538 44.8381L48.4959 35.0021Z" fill="black"/>
</svg>
