<svg width="94" height="104" viewBox="0 0 94 104" fill="none" xmlns="http://www.w3.org/2000/svg">
<path d="M20.3219 20.2499V18.1379C20.3219 17.2979 19.6399 16.6159 18.7979 16.6159C17.9579 16.6159 17.2759 17.2979 17.2759 18.1379V20.2499C17.2759 21.0899 17.9579 21.7739 18.7979 21.7739C19.6399 21.7739 20.3219 21.0919 20.3219 20.2499Z" fill="#1D1D1B"/>
<path d="M22.7661 18.1399V20.2519C22.7661 21.0919 23.4481 21.7759 24.2901 21.7759C25.1301 21.7759 25.8121 21.0939 25.8121 20.2519V18.1399C25.8121 17.2999 25.1301 16.6179 24.2901 16.6179C23.4481 16.6179 22.7661 17.2979 22.7661 18.1399Z" fill="#1D1D1B"/>
<path d="M15.476 26.0659C15.058 25.3359 14.128 25.0819 13.398 25.4999C12.668 25.9159 12.414 26.8459 12.832 27.5779C14.136 29.8639 16.374 31.1519 19.298 31.3079C19.326 31.3099 19.354 31.3099 19.382 31.3099C20.186 31.3099 20.858 30.6799 20.902 29.8679C20.946 29.0279 20.302 28.3099 19.462 28.2659C17.568 28.1659 16.264 27.4459 15.476 26.0659Z" fill="#1D1D1B"/>
<path d="M2.91602 26.0359C4.23202 32.6399 10.11 37.5219 16.928 37.5219C24.806 37.5219 31.218 31.1139 31.218 23.2339V16.0559C31.218 15.2159 30.536 14.5339 29.696 14.5339C28.856 14.5339 28.172 15.2159 28.172 16.0559V23.2339C28.172 29.4319 23.128 34.4759 16.928 34.4759C11.338 34.4759 6.55002 30.3059 5.79202 24.7759C5.71402 24.2099 5.32802 23.7359 4.78802 23.5459C4.41803 23.4179 4.088 23.2079 3.806 22.9259C3.316 22.4379 3.04602 21.7859 3.04602 21.0939C3.04602 20.3999 3.316 19.7499 3.806 19.2599C4.068 18.9979 4.37201 18.7999 4.70801 18.6719C5.66401 18.3039 6.75001 18.5339 7.46201 19.2479C7.77601 19.5699 8.20003 19.7239 8.62003 19.7059C11.706 19.6699 14.238 17.2759 14.488 14.2439H24.572C31.528 14.2439 37.186 8.58391 37.186 1.62991C37.186 0.789913 36.504 0.10791 35.664 0.10791H15.256C8.30001 0.10791 2.642 5.76589 2.642 12.7219C2.642 13.5639 3.32402 14.2459 4.16602 14.2459C5.00602 14.2459 5.68802 13.5639 5.68802 12.7219C5.68802 7.44589 9.98001 3.1539 15.256 3.1539H34.018C33.286 7.7099 29.33 11.1979 24.572 11.1979H12.986C12.146 11.1979 11.464 11.8799 11.464 12.7219V13.7519C11.464 15.1799 10.428 16.3739 9.06802 16.6179C7.52602 15.4379 5.46203 15.1239 3.62003 15.8299C2.88203 16.1099 2.22002 16.5419 1.65402 17.1099C0.588022 18.1739 0 19.5899 0 21.0979C0 22.6059 0.586008 24.0199 1.65201 25.0839C2.03201 25.4619 2.45602 25.7819 2.91602 26.0359Z" fill="#1D1D1B"/>
<path d="M8.18402 37.8779C5.71202 43.1319 3.87003 50.2439 2.76203 55.2839C2.58203 56.1039 3.10003 56.9179 3.92203 57.0979C4.03203 57.1219 4.142 57.1339 4.25 57.1339C4.95 57.1339 5.58003 56.6499 5.73603 55.9379C6.81203 51.0499 8.58801 44.1739 10.94 39.1739C11.298 38.4139 10.972 37.5059 10.21 37.1479C9.45002 36.7899 8.54202 37.1179 8.18402 37.8779Z" fill="#1D1D1B"/>
<path d="M67.5719 20.2499V18.1379C67.5719 17.2979 66.8899 16.6159 66.0499 16.6159C65.2079 16.6159 64.5259 17.2979 64.5259 18.1379V20.2499C64.5259 21.0899 65.2079 21.7739 66.0499 21.7739C66.8899 21.7739 67.5719 21.0919 67.5719 20.2499Z" fill="#1D1D1B"/>
<path d="M62.0841 20.2499V18.1379C62.0841 17.2979 61.4021 16.6159 60.5601 16.6159C59.7201 16.6159 59.0381 17.2979 59.0381 18.1379V20.2499C59.0381 21.0899 59.7201 21.7739 60.5601 21.7739C61.4021 21.7739 62.0841 21.0919 62.0841 20.2499Z" fill="#1D1D1B"/>
<path d="M63.9479 29.8699C63.9899 30.6819 64.6619 31.3119 65.4679 31.3119C65.4959 31.3119 65.5219 31.3099 65.5519 31.3099C68.4759 31.1519 70.7139 29.8639 72.0179 27.5779C72.4359 26.8479 72.1819 25.9179 71.4519 25.4999C70.7219 25.0819 69.7919 25.3359 69.3739 26.0659C68.5859 27.4459 67.2839 28.1639 65.3899 28.2679C64.5479 28.3119 63.9039 29.0299 63.9479 29.8699Z" fill="#1D1D1B"/>
<path d="M67.9199 37.5219C74.7379 37.5219 80.6159 32.6419 81.9319 26.0359C82.3919 25.7819 82.8159 25.4619 83.1959 25.0839C84.2619 24.0199 84.8499 22.6019 84.8499 21.0959C84.8499 19.5899 84.2639 18.1739 83.1979 17.1099C82.1319 16.0439 80.7159 15.4559 79.2079 15.4559C78.7339 15.4559 78.2679 15.5139 77.8199 15.6259V15.0959C77.8199 14.2539 77.1379 13.5719 76.2959 13.5719C72.0319 13.5719 71.6659 9.61391 71.6379 9.17191C71.6079 8.56991 71.2259 8.0439 70.6639 7.8259C70.1019 7.6099 69.4659 7.74392 69.0379 8.16992C66.5399 10.6699 60.2839 10.8619 56.7859 10.6579C57.4559 6.4159 61.1379 3.15991 65.5659 3.15991H70.2059C71.9879 3.15991 73.7059 3.6859 75.1739 4.6759C75.8719 5.1479 76.8179 4.96391 77.2879 4.26791C77.7579 3.56991 77.5759 2.6239 76.8779 2.1539C74.9039 0.8199 72.5959 0.113922 70.2059 0.113922H65.5659C58.9839 0.113922 53.6319 5.46791 53.6319 12.0479C53.6319 12.8199 54.2119 13.4699 54.9779 13.5599C55.0959 13.5739 57.8719 13.8899 61.1979 13.6919C64.5179 13.4959 67.1759 12.8659 69.1399 11.8159C69.9139 13.8419 71.5959 15.9779 74.7719 16.4979V18.1819C74.7719 18.7979 75.1439 19.3519 75.7119 19.5879C76.2819 19.8239 76.9359 19.6939 77.3719 19.2579C77.8619 18.7679 78.5139 18.4979 79.2059 18.4979C79.8999 18.4979 80.5499 18.7679 81.0399 19.2599C81.5299 19.7479 81.7999 20.3999 81.7999 21.0919C81.7999 21.7859 81.5299 22.4359 81.0399 22.9259C80.7599 23.2059 80.4299 23.4139 80.0599 23.5439C79.5199 23.7319 79.1299 24.2079 79.0539 24.7739C78.2959 30.3039 73.5099 34.4739 67.9179 34.4739C61.7199 34.4739 56.6759 29.4299 56.6759 23.2299V16.7179C56.6759 15.8779 55.9939 15.1959 55.1539 15.1959C54.3119 15.1959 53.6299 15.8779 53.6299 16.7179V23.2299C53.6299 31.1119 60.0419 37.5219 67.9199 37.5219Z" fill="#1D1D1B"/>
<path d="M79.094 12.0519C79.094 12.8919 79.776 13.5739 80.618 13.5739C81.46 13.5739 82.14 12.8919 82.14 12.0519C82.14 10.0639 81.642 8.09791 80.698 6.36191C80.296 5.62191 79.372 5.34993 78.634 5.75193C77.894 6.15393 77.622 7.07791 78.022 7.81791C78.724 9.10791 79.094 10.5719 79.094 12.0519Z" fill="#1D1D1B"/>
<path d="M92.802 72.5199C91.42 72.1359 90.474 70.8839 90.502 69.4739C90.682 60.2859 87.354 53.3619 84.532 49.1719C81.946 45.3339 79.33 43.0459 78.496 42.3619C77.93 40.7839 77.32 39.2699 76.666 37.8799C76.308 37.1199 75.402 36.7919 74.64 37.1499C73.88 37.5079 73.552 38.4159 73.91 39.1759C77.782 47.4059 80.13 60.7299 80.678 64.0679C77.17 67.2479 72.538 68.4819 66.892 67.7379C63.998 67.3559 61.514 66.5199 60.064 65.9499C63.786 57.2939 65.388 43.0619 65.684 40.1559C65.768 39.3199 65.16 38.5719 64.322 38.4879C63.486 38.4019 62.738 39.0119 62.654 39.8479C62.448 41.8499 62.172 44.0659 61.824 46.3559C61.35 47.9339 60.28 49.2519 58.802 50.0459C57.092 50.9659 55.096 51.0419 53.328 50.2519C51.88 49.6059 50.388 48.8159 48.894 47.9059C48.848 47.8779 48.802 47.8539 48.752 47.8299C46.156 46.5999 43.95 46.9759 42.422 47.6239C40.896 46.9739 38.69 46.5979 36.092 47.8299C36.044 47.8539 35.998 47.8779 35.952 47.9059C31.1 50.8639 27.144 52.0639 24.078 52.3999C23.21 48.0559 22.576 43.5859 22.194 39.8479C22.11 39.0119 21.362 38.4039 20.526 38.4879C19.69 38.5719 19.08 39.3199 19.164 40.1559C19.328 41.7579 19.888 46.8039 20.982 52.4579C19.694 52.3539 18.664 52.0979 17.892 51.8279C15.26 50.9039 13.316 49.0379 12.42 46.5739C12.132 45.7839 11.258 45.3759 10.468 45.6639C9.67801 45.9519 9.27 46.8239 9.558 47.6159C10.772 50.9539 13.374 53.4719 16.884 54.7019C18.356 55.2179 19.946 55.4959 21.626 55.5439C22.444 59.2119 23.486 62.9219 24.788 65.9499C23.338 66.5199 20.856 67.3559 17.96 67.7379C12.314 68.4819 7.68202 67.2459 4.17202 64.0679C4.30002 63.2839 4.526 61.9559 4.846 60.2819C5.004 59.4539 4.46201 58.6579 3.63601 58.4999C2.81001 58.3419 2.01199 58.8839 1.85399 59.7099C1.31999 62.5039 1.048 64.3179 1.036 64.3939C0.964 64.8719 1.12401 65.3539 1.46401 65.6959C2.79801 67.0299 4.29401 68.1119 5.93001 68.9459C5.94401 68.9799 5.95601 69.0139 5.97201 69.0459C6.04601 69.1959 13.172 84.1919 4.36001 100.418C4.10401 100.89 4.114 101.462 4.39 101.924C4.666 102.386 5.162 102.67 5.7 102.67H10.978C11.818 102.67 12.502 101.988 12.502 101.146C12.502 100.304 11.82 99.6219 10.978 99.6219H8.17C12.056 91.2639 12.17 83.4339 11.516 78.1619C11.108 74.8719 10.372 72.1919 9.75802 70.3699C11.388 70.7799 13.118 70.9919 14.938 70.9919C16.074 70.9919 17.246 70.9099 18.448 70.7479C19.51 70.6059 20.518 70.4099 21.448 70.1879C22.906 73.9859 26.778 86.7699 19.362 100.422C19.106 100.894 19.116 101.466 19.392 101.928C19.668 102.39 20.164 102.674 20.7 102.674H25.98C26.82 102.674 27.502 101.992 27.502 101.15C27.502 100.308 26.82 99.6259 25.98 99.6259H23.172C27.056 91.2679 27.172 83.4379 26.518 78.1659C26.024 74.1879 25.052 71.1019 24.392 69.3439C26.252 68.7159 27.42 68.1399 27.506 68.0959C27.868 67.9159 28.142 67.5979 28.27 67.2159C28.396 66.8339 28.368 66.4139 28.186 66.0539C26.828 63.3379 25.666 59.5179 24.718 55.3899C28.674 54.8879 33.01 53.2599 37.466 50.5559C38.296 50.1759 39.054 50.0619 39.72 50.0939C39.7 50.5079 39.846 50.9279 40.16 51.2419C40.756 51.8379 41.714 51.8419 42.31 51.2479C42.32 51.2379 42.36 51.1999 42.428 51.1439C42.488 51.1959 42.526 51.2299 42.534 51.2379C43.128 51.8319 44.092 51.8319 44.688 51.2379C45.004 50.9219 45.15 50.5059 45.132 50.0939C45.798 50.0599 46.558 50.1759 47.386 50.5539C48.966 51.5139 50.55 52.3479 52.092 53.0359C53.302 53.5779 54.586 53.8459 55.866 53.8459C57.372 53.8459 58.874 53.4739 60.252 52.7319C60.43 52.6379 60.602 52.5319 60.772 52.4259C59.728 57.6519 58.35 62.6939 56.67 66.0519C56.49 66.4119 56.46 66.8319 56.586 67.2139C56.712 67.5959 56.988 67.9139 57.35 68.0939C57.436 68.1359 58.604 68.7139 60.464 69.3419C59.802 71.0999 58.83 74.1839 58.338 78.1639C57.684 83.4379 57.798 91.2679 61.684 99.6239H58.876C58.036 99.6239 57.354 100.306 57.354 101.146C57.354 101.988 58.036 102.67 58.876 102.67H64.154C64.692 102.67 65.19 102.386 65.464 101.926C65.738 101.464 65.75 100.892 65.494 100.42C61.816 93.6479 60.42 86.3259 61.348 78.6559C61.822 74.7399 62.814 71.7279 63.406 70.1859C64.336 70.4059 65.344 70.6039 66.406 70.7479C67.608 70.9099 68.78 70.9919 69.916 70.9919C71.736 70.9919 73.464 70.7799 75.094 70.3699C74.478 72.1919 73.744 74.8719 73.336 78.1619C72.682 83.4359 72.796 91.2659 76.682 99.6219H73.874C73.034 99.6219 72.352 100.304 72.352 101.146C72.352 101.988 73.034 102.67 73.874 102.67H79.152C79.69 102.67 80.188 102.386 80.46 101.924C80.736 101.462 80.746 100.89 80.49 100.42C76.812 93.6479 75.416 86.3259 76.344 78.6559C77.038 72.9219 78.844 69.1219 78.878 69.0479C78.894 69.0159 78.908 68.9819 78.92 68.9499C80.558 68.1159 82.054 67.0319 83.388 65.6999C83.728 65.3599 83.888 64.8759 83.818 64.3979C83.75 63.9439 82.636 56.5959 80.518 48.8399C81.028 49.4839 81.554 50.1959 82.076 50.9779C85.78 56.5199 87.592 62.7259 87.462 69.4199C87.408 72.2199 89.27 74.7039 91.992 75.4599C92.128 75.4979 92.266 75.5159 92.4 75.5159C93.066 75.5159 93.68 75.0739 93.866 74.3999C94.088 73.5839 93.614 72.7439 92.802 72.5199Z" fill="#1D1D1B"/>
</svg>
