<svg width="60" height="104" viewBox="0 0 60 104" fill="none" xmlns="http://www.w3.org/2000/svg">
<path d="M35.6561 44.0418C36.2281 43.0518 36.5581 41.9058 36.5581 40.6818C36.5581 38.5798 35.5902 36.6978 34.0762 35.4618L52.3302 23.2678C52.8802 22.8998 53.2102 22.2818 53.2102 21.6198V2.61578C53.2102 1.52178 52.3222 0.633789 51.2281 0.633789H8.40417C7.31017 0.633789 6.42017 1.52178 6.42017 2.61578V21.6198C6.42017 22.2818 6.75212 22.9018 7.30212 23.2698L25.5562 35.4638C24.0422 36.6998 23.0742 38.5818 23.0742 40.6838C23.0742 41.9078 23.4042 43.0558 23.9762 44.0438C10.5842 46.7578 0.474121 58.6218 0.474121 72.8018C0.474121 88.9818 13.6382 102.144 29.8162 102.144C45.9942 102.144 59.1582 88.9798 59.1582 72.8018C59.1602 58.6178 49.0481 46.7558 35.6561 44.0418ZM49.2462 20.5578L40.5222 26.3858V4.59579H49.2462V20.5578ZM19.1122 4.59579V15.5338C19.1122 16.6298 20.0001 17.5158 21.0941 17.5158C22.1881 17.5158 23.0762 16.6298 23.0762 15.5338V4.59579H36.5581V29.0338L29.8162 33.5358L10.3861 20.5558V4.59579H19.1122ZM27.0421 40.6798C27.0421 39.1498 28.2881 37.9038 29.8181 37.9038C31.3481 37.9038 32.5941 39.1498 32.5941 40.6798C32.5941 42.2098 31.3481 43.4558 29.8181 43.4558C28.2881 43.4558 27.0421 42.2098 27.0421 40.6798ZM29.8162 98.1758C15.8222 98.1758 4.43811 86.7918 4.43811 72.7978C4.43811 58.8038 15.8222 47.4218 29.8162 47.4218C43.8082 47.4218 55.1942 58.8058 55.1942 72.7978C55.1942 86.7898 43.8102 98.1758 29.8162 98.1758Z" fill="#1D1D1B"/>
<path d="M40.8401 59.1318C41.2281 59.5198 41.7341 59.7138 42.2421 59.7138C42.7481 59.7138 43.2561 59.5198 43.6441 59.1318C44.4181 58.3578 44.4181 57.1018 43.6441 56.3278L43.6301 56.3138C42.8541 55.5398 41.6001 55.5398 40.8261 56.3138C40.0521 57.0878 40.0521 58.3438 40.8261 59.1178L40.8401 59.1318Z" fill="#1D1D1B"/>
<path d="M48.8141 62.9138C48.3081 61.9438 47.11 61.5658 46.14 62.0718C45.17 62.5778 44.7921 63.7758 45.2981 64.7458C46.6021 67.2458 47.2621 69.9558 47.2621 72.7978C47.2621 82.4178 39.436 90.2458 29.816 90.2458C28.72 90.2458 27.834 91.1338 27.834 92.2278C27.834 93.3218 28.72 94.2098 29.816 94.2098C41.622 94.2098 51.228 84.6038 51.228 72.7978C51.228 69.3598 50.3941 65.9418 48.8141 62.9138Z" fill="#1D1D1B"/>
<path d="M17.4641 85.1198C16.6901 84.3458 15.4421 84.3518 14.6661 85.1258C13.8921 85.8998 13.8981 87.1618 14.6721 87.9358C15.0601 88.3238 15.5662 88.5178 16.0742 88.5178C16.5802 88.5178 17.0882 88.3238 17.4762 87.9358C18.2502 87.1618 18.2502 85.9058 17.4762 85.1318L17.4641 85.1198Z" fill="#1D1D1B"/>
<path d="M13.9283 80.0178C12.8923 77.7458 12.3702 75.3178 12.3702 72.7998C12.3702 63.1798 20.1982 55.3538 29.8182 55.3538C30.9122 55.3538 31.8003 54.4658 31.8003 53.3718C31.8003 52.2758 30.9122 51.3898 29.8182 51.3898C18.0102 51.3898 8.40625 60.9938 8.40625 72.8018C8.40625 75.8898 9.05031 78.8718 10.3203 81.6638C10.6523 82.3938 11.3723 82.8258 12.1263 82.8258C12.4003 82.8258 12.6803 82.7678 12.9463 82.6458C13.9403 82.1898 14.3823 81.0138 13.9283 80.0178Z" fill="#1D1D1B"/>
<path d="M34.1164 82.7498C35.2104 82.7498 36.0983 81.8618 36.0983 80.7678C36.0983 79.6718 35.2104 78.7838 34.1164 78.7838H31.8304V64.8318C31.8304 64.0298 31.3484 63.3078 30.6064 62.9998C29.8664 62.6938 29.0123 62.8638 28.4463 63.4298L23.6723 68.2038C22.8983 68.9778 22.8983 70.2338 23.6723 71.0078C24.4463 71.7818 25.7024 71.7818 26.4764 71.0078L27.8643 69.6198V78.7858H25.5783C24.4843 78.7858 23.5964 79.6718 23.5964 80.7678C23.5964 81.8618 24.4843 82.7498 25.5783 82.7498H34.1164Z" fill="#1D1D1B"/>
</svg>
