<svg width="88" height="86" viewBox="0 0 88 86" fill="none" xmlns="http://www.w3.org/2000/svg">
<path d="M1.90405 85.5699C1.90405 57.2359 1.90405 28.9459 1.90405 0.585938C29.9841 0.585938 58.054 0.585938 86.192 0.585938C86.192 28.8999 86.192 57.2079 86.192 85.5699C58.116 85.5699 30.0621 85.5699 1.90405 85.5699ZM84.8341 43.0679C84.8341 29.7639 84.8341 16.4579 84.8341 3.15192C84.8341 1.93792 84.834 1.93591 83.662 1.93591C57.26 1.93591 30.8561 1.93591 4.45406 1.93591C3.28806 1.93591 3.28604 1.93593 3.28604 3.07593C3.28604 29.7399 3.28604 56.4019 3.28604 83.0659C3.28604 84.2039 3.28804 84.2039 4.45604 84.2039C30.832 84.2039 57.21 84.2039 83.586 84.2039C84.834 84.2039 84.836 84.204 84.836 82.986C84.834 69.68 84.8341 56.3759 84.8341 43.0679Z" fill="white"/>
<path d="M25.754 42.0479C25.824 42.0459 25.892 42.0439 25.962 42.0419C26.024 42.1979 26.112 42.3479 26.142 42.5079C27.25 48.8259 28.36 55.1419 29.446 61.4639C29.542 62.0279 29.784 62.2319 30.322 62.1719C30.966 62.1019 30.694 61.6679 30.64 61.3519C29.454 54.5999 28.258 47.8499 27.072 41.0959C27 40.6879 26.862 40.3839 26.388 40.4419C25.896 40.4999 25.27 40.1679 25.026 40.9619C24.454 42.8219 23.86 44.6739 23.258 46.5239C21.908 50.6719 20.55 54.8139 19.194 58.9579C19.05 59.3959 18.888 59.8319 18.736 60.2679C18.664 60.2539 18.592 60.2419 18.52 60.2279C18.418 59.9379 18.308 59.6519 18.212 59.3619C16.196 53.2779 14.164 47.1959 12.188 41.0979C11.922 40.2779 11.378 40.4799 10.84 40.4319C10.254 40.3779 10.256 40.8019 10.186 41.1819C9.516 44.8879 8.84399 48.5919 8.17199 52.2979C7.62999 55.2879 7.08 58.2759 6.556 61.2679C6.498 61.5919 6.23399 62.0839 6.90399 62.1679C7.44199 62.2359 7.61199 61.9619 7.69799 61.4659C8.78199 55.2499 9.882 49.0379 10.984 42.8239C11.026 42.5879 11.108 42.3579 11.17 42.1219C11.506 42.6039 11.676 43.0859 11.838 43.5699C12.866 46.6479 13.898 49.7239 14.914 52.8059C15.89 55.7639 16.832 58.7319 17.838 61.6779C17.918 61.9099 18.376 62.1259 18.664 62.1359C18.898 62.1439 19.284 61.8739 19.36 61.6459C20.724 57.5859 22.058 53.5159 23.384 49.4439C24.186 46.9859 24.964 44.5159 25.754 42.0479Z" fill="white"/>
<path d="M47.9561 51.1101C47.9561 47.8121 47.9561 44.5141 47.9561 41.2141C47.9561 40.8161 48.0041 40.4361 47.3921 40.4241C46.7501 40.4121 46.7761 40.7901 46.7761 41.2321C46.7841 44.2981 46.7801 47.3621 46.7801 50.4261C46.7801 53.6201 46.7821 56.8141 46.7781 60.0101C46.7781 60.3881 46.8641 60.7781 46.2861 60.8921C43.7401 61.3921 41.1801 61.5921 38.6321 61.0201C36.6221 60.5681 35.0261 59.5121 34.4441 57.3941C34.2401 56.654 34.1421 55.8601 34.1381 55.092C34.1101 50.47 34.1221 45.8461 34.1261 41.2241C34.1261 40.7761 34.1461 40.4101 33.5041 40.4181C32.8741 40.4261 32.9541 40.814 32.9541 41.204C32.9541 44.008 32.9541 46.814 32.9561 49.618C32.9581 51.6441 32.9101 53.672 32.9821 55.694C33.1041 59.098 34.8401 61.2561 38.1161 62.0501C41.0541 62.7641 43.9881 62.4561 46.9201 61.8701C47.7681 61.7021 47.9901 61.3641 47.9761 60.5341C47.9261 57.3961 47.9561 54.2521 47.9561 51.1101Z" fill="white"/>
<path d="M22.878 31.7281C22.11 32.0641 21.418 32.4361 20.68 32.6701C19.944 32.9041 19.17 33.0701 18.4 33.1461C14.358 33.5421 10.29 31.964 8.33403 27.764C7.42803 25.816 7.27603 23.7661 7.46203 21.6681C8.09403 14.5621 16.068 10.696 22.026 14.6C22.182 14.702 22.354 14.7781 22.588 14.9041C22.608 14.2401 22.776 13.7161 22.114 13.3101C18.83 11.2941 13.402 11.6561 10.416 14.0841C7.04001 16.8281 5.85601 20.4361 6.30001 24.6221C7.23401 33.4581 16.074 36.0701 22.27 33.2221C22.928 32.9181 23.132 32.4581 22.878 31.7281Z" fill="white"/>
<path d="M61.698 42.772C61.914 42.084 61.636 41.566 60.904 41.168C59.494 40.398 58.002 40.03 56.412 40.146C53.682 40.346 51.674 41.934 51.214 44.19C50.668 46.88 51.644 48.92 54.246 50.298C55.388 50.904 56.63 51.318 57.788 51.9C58.662 52.338 59.564 52.796 60.29 53.432C61.7 54.668 61.924 56.318 61.514 58.074C61.134 59.706 60.018 60.676 58.474 61.104C56.316 61.706 54.256 61.362 52.342 60.188C51.956 59.95 51.568 59.712 51.146 59.452C50.886 60.244 51.056 60.754 51.734 61.15C53.878 62.396 56.156 62.76 58.564 62.202C60.864 61.67 62.43 59.9 62.77 57.538C63.13 55.038 62.15 52.908 60.008 51.762C58.846 51.138 57.586 50.702 56.414 50.094C55.362 49.55 54.25 49.024 53.38 48.248C51.554 46.616 51.892 43.446 53.92 42.06C55.224 41.166 56.698 40.948 58.168 41.336C59.372 41.65 60.494 42.268 61.698 42.772Z" fill="white"/>
<path d="M58.9101 14.8298C59.1041 13.7038 59.0581 13.5738 58.2701 13.0998C56.7221 12.1658 55.0301 11.8458 53.2541 12.0458C50.7321 12.3298 48.9381 13.9018 48.4641 16.1618C47.9541 18.5958 48.9621 20.7798 51.2601 22.0458C52.2101 22.5698 53.2521 22.9278 54.2201 23.4238C55.3661 24.0118 56.5661 24.5498 57.5861 25.3138C59.5701 26.8038 59.7261 31.5698 56.1601 32.8178C54.1621 33.5198 52.2261 33.3638 50.3461 32.4478C49.7061 32.1358 49.1081 31.7398 48.4401 31.3538C48.2461 32.0718 48.3081 32.5858 48.9761 32.9858C51.0601 34.2378 53.2981 34.6278 55.6421 34.0838C58.0241 33.5318 59.6181 32.0938 59.9581 29.5618C60.2501 27.3918 59.7801 24.8098 57.1421 23.5218C56.0481 22.9878 54.9121 22.5398 53.8141 22.0098C52.8821 21.5598 51.9221 21.1338 51.0781 20.5478C49.6281 19.5458 49.3081 18.0178 49.5941 16.3898C49.8621 14.8738 50.7761 13.7958 52.2841 13.3498C54.3501 12.7378 56.2881 13.0658 58.0781 14.2658C58.3341 14.4398 58.5861 14.6118 58.9101 14.8298Z" fill="white"/>
<path d="M48.7701 73.0921C48.7101 73.0281 48.6501 72.9641 48.5901 72.8961C47.5281 73.3061 46.4981 73.4862 45.6801 72.4602C45.1781 71.8302 45.1321 70.7281 45.5741 70.0361C46.3401 68.8401 47.4341 69.0681 48.6221 69.3321C48.4901 69.0381 48.3261 68.7701 48.0921 68.6781C46.9981 68.2481 45.7201 68.6641 45.0501 69.6201C44.3921 70.5561 44.4501 72.0201 45.1761 72.8961C45.8901 73.7581 47.2981 74.0981 48.2981 73.6121C48.4941 73.5201 48.6141 73.2701 48.7701 73.0921Z" fill="white"/>
<path d="M14.7721 69.3758C14.8361 69.3158 14.9021 69.2537 14.9661 69.1937C14.7801 69.0157 14.6181 68.7278 14.4021 68.6818C13.9581 68.5818 13.4781 68.5458 13.0261 68.5998C12.4341 68.6738 12.0441 69.0578 11.9521 69.6678C11.8601 70.2858 12.0341 70.8098 12.6121 71.1178C12.9521 71.2998 13.3201 71.4338 13.6841 71.5698C14.1821 71.7558 14.6201 72.0018 14.4501 72.6298C14.2881 73.2238 13.7721 73.3158 13.2621 73.2478C12.8481 73.1898 12.4501 73.0238 12.0441 72.9078C11.9921 72.9678 11.9421 73.0258 11.8921 73.0838C12.0721 73.2758 12.2261 73.5918 12.4341 73.6318C12.9541 73.7338 13.5061 73.7758 14.0341 73.7218C14.6901 73.6558 15.0101 73.1718 15.0761 72.5458C15.1441 71.9198 14.9061 71.4238 14.3161 71.1538C13.9401 70.9818 13.4861 70.9198 13.1821 70.6698C12.9101 70.4478 12.5861 69.9698 12.6621 69.7178C12.7461 69.4378 13.2401 69.1618 13.5861 69.1158C13.9641 69.0618 14.3761 69.2778 14.7721 69.3758Z" fill="white"/>
<path d="M32.024 73.0961C31.978 73.0281 31.932 72.9621 31.886 72.8941C30.734 73.3221 29.608 73.4921 28.796 72.3521C28.286 71.6341 28.296 70.8041 28.752 70.0681C29.506 68.8521 30.648 69.0481 31.8 69.4421C31.98 68.8021 31.54 68.7241 31.188 68.6241C30.07 68.3081 28.82 68.7381 28.282 69.5961C27.63 70.6381 27.688 72.0621 28.424 72.9641C29.06 73.7461 30.49 74.0721 31.506 73.6261C31.714 73.5361 31.852 73.2781 32.024 73.0961Z" fill="white"/>
<path d="M71.3041 68.5898C71.2321 68.6498 71.1601 68.7118 71.0901 68.7718C71.1521 68.9598 71.2041 69.1498 71.2741 69.3358C71.7581 70.5898 72.2301 71.8518 72.7461 73.0938C72.8461 73.3338 73.1281 73.6558 73.3241 73.6558C73.5281 73.6538 73.8141 73.3418 73.9181 73.1018C74.4401 71.8898 74.9181 70.6598 75.4021 69.4318C75.4881 69.2098 75.5281 68.9698 75.5901 68.7358C75.5281 68.6938 75.4641 68.6498 75.4021 68.6058C75.2321 68.7458 75.0281 68.8578 74.9021 69.0298C74.7841 69.1878 74.7501 69.4098 74.6761 69.6038C74.2661 70.6778 73.8561 71.7518 73.3641 73.0378C73.1581 72.5798 73.0421 72.3558 72.9561 72.1198C72.6021 71.1498 72.2781 70.1638 71.8921 69.2058C71.7941 68.9598 71.5061 68.7918 71.3041 68.5898Z" fill="white"/>
<path d="M67.6741 73.4658C67.6281 73.3798 67.5821 73.2938 67.5361 73.2078C66.0241 73.2798 65.9561 73.2098 65.9561 71.6318C65.9561 71.1398 65.9901 70.6458 65.9481 70.1558C65.8901 69.4918 66.0521 69.1098 66.8241 69.1978C66.9961 69.2178 67.1921 69.0278 67.3761 68.9338C67.1761 68.8338 66.9741 68.6458 66.7761 68.6498C66.2141 68.6578 65.8721 68.5358 65.9341 67.8718C65.9461 67.7418 65.7341 67.5898 65.6261 67.4478C65.5181 67.5938 65.3361 67.7338 65.3181 67.8898C65.2741 68.2538 65.3321 68.6357 64.7901 68.6597C64.7061 68.6637 64.5501 68.8577 64.5701 68.9037C64.6181 69.0238 64.7601 69.0998 64.8421 69.2098C65.0021 69.4178 65.2561 69.6278 65.2781 69.8558C65.3401 70.4718 65.2821 71.0978 65.3061 71.7178C65.3241 72.1778 65.3341 72.6537 65.4541 73.0938C65.6161 73.6917 66.1421 73.8538 66.6881 73.8018C67.0241 73.7698 67.3461 73.5838 67.6741 73.4658Z" fill="white"/>
<path d="M50.332 71.374C50.332 71.916 50.3 72.464 50.348 73.002C50.368 73.23 50.554 73.444 50.664 73.662C50.76 73.432 50.924 73.204 50.938 72.968C50.976 72.324 50.952 71.674 50.952 71.028C50.952 69.38 50.952 69.384 52.61 69.218C52.746 69.206 52.87 69.056 53 68.97C52.894 68.848 52.792 68.63 52.68 68.624C52.246 68.598 51.802 68.602 51.372 68.664C50.634 68.77 50.206 69.138 50.324 69.978C50.384 70.432 50.332 70.906 50.332 71.374Z" fill="white"/>
<path d="M69.1301 71.2081H69.1281C69.1281 71.8821 69.1101 72.5562 69.1421 73.2281C69.1501 73.3841 69.3281 73.5321 69.4281 73.6861C69.5481 73.5541 69.7701 73.4241 69.7721 73.2901C69.7961 71.8921 69.7961 70.4941 69.7721 69.0961C69.7701 68.9501 69.5621 68.8061 69.4501 68.6621C69.3441 68.8121 69.1541 68.9581 69.1461 69.1121C69.1101 69.8081 69.1301 70.5081 69.1301 71.2081Z" fill="white"/>
<path d="M34.1701 71.1379C34.1701 70.4639 34.1881 69.7899 34.1561 69.1179C34.1481 68.9639 33.964 68.818 33.86 68.668C33.75 68.81 33.544 68.954 33.542 69.098C33.518 70.472 33.518 71.846 33.542 73.218C33.544 73.368 33.7401 73.5139 33.8461 73.6619C33.9541 73.4939 34.148 73.33 34.158 73.158C34.194 72.488 34.1721 71.8139 34.1701 71.1379Z" fill="white"/>
<path d="M70.1241 67.0839C69.8101 66.8499 69.6361 66.6239 69.4501 66.6139C69.3021 66.6059 68.9961 66.8839 69.0141 66.9959C69.0441 67.1919 69.2481 67.4619 69.4221 67.4979C69.5781 67.5319 69.7921 67.2919 70.1241 67.0839Z" fill="white"/>
<path d="M34.538 67.0859C34.224 66.8519 34.05 66.6279 33.864 66.6159C33.716 66.6079 33.41 66.8839 33.428 66.9939C33.458 67.1879 33.658 67.4618 33.832 67.4978C33.99 67.5318 34.204 67.2939 34.538 67.0859Z" fill="white"/>
<path d="M25.754 42.0479C24.964 44.5139 24.186 46.9819 23.384 49.4439C22.058 53.5159 20.724 57.5859 19.36 61.6459C19.284 61.8739 18.898 62.1439 18.664 62.1359C18.374 62.1259 17.916 61.9099 17.838 61.6779C16.832 58.7319 15.89 55.7639 14.914 52.8059C13.898 49.7239 12.866 46.6479 11.838 43.5699C11.676 43.0879 11.506 42.6059 11.17 42.1219C11.108 42.3559 11.026 42.5859 10.984 42.8239C9.882 49.0379 8.78199 55.2499 7.69799 61.4659C7.61199 61.9639 7.43999 62.2359 6.90399 62.1679C6.23399 62.0839 6.498 61.5919 6.556 61.2679C7.08 58.2759 7.62999 55.2879 8.17199 52.2979C8.84399 48.5919 9.516 44.8879 10.186 41.1819C10.256 40.8019 10.254 40.3779 10.84 40.4319C11.378 40.4799 11.922 40.2779 12.188 41.0979C14.164 47.1959 16.196 53.2779 18.212 59.3619C18.308 59.6539 18.418 59.9399 18.52 60.2279C18.592 60.2419 18.664 60.2539 18.736 60.2679C18.888 59.8319 19.05 59.3959 19.194 58.9579C20.55 54.8139 21.908 50.6719 23.258 46.5239C23.86 44.6739 24.454 42.8219 25.026 40.9619C25.27 40.1679 25.898 40.4999 26.388 40.4419C26.862 40.3839 27 40.6879 27.072 41.0959C28.258 47.8499 29.454 54.5999 30.64 61.3519C30.696 61.6679 30.966 62.1019 30.322 62.1719C29.784 62.2319 29.542 62.0279 29.446 61.4639C28.36 55.1419 27.25 48.8259 26.142 42.5079C26.114 42.3459 26.024 42.1959 25.962 42.0419C25.892 42.0419 25.822 42.0459 25.754 42.0479Z" fill="white"/>
<path d="M47.9561 51.1101C47.9561 54.2521 47.9261 57.3961 47.9761 60.5361C47.9881 61.3661 47.7661 61.7021 46.9201 61.8721C43.9881 62.4581 41.0561 62.7661 38.1161 62.0521C34.8421 61.2601 33.1041 59.1001 32.9821 55.6961C32.9101 53.6741 32.9581 51.6461 32.9561 49.6201C32.9541 46.8161 32.9541 44.0101 32.9541 41.2061C32.9541 40.8181 32.8761 40.4261 33.5041 40.4181C34.1461 40.4101 34.1261 40.7801 34.1261 41.2261C34.1201 45.8481 34.1101 50.4721 34.1381 55.0941C34.1421 55.8641 34.2401 56.6561 34.4441 57.3961C35.0261 59.5141 36.6241 60.5681 38.6321 61.0201C41.1801 61.5901 43.7381 61.3921 46.2861 60.8921C46.8661 60.7761 46.7781 60.3901 46.7781 60.0121C46.7821 56.8181 46.7801 53.6221 46.7801 50.4261C46.7801 47.3621 46.7841 44.3001 46.7761 41.2341C46.7761 40.7901 46.7501 40.4141 47.3921 40.4261C48.0041 40.4381 47.9561 40.8181 47.9561 41.2161C47.9561 44.5141 47.9561 47.8121 47.9561 51.1101Z" fill="white"/>
<path d="M44.844 33.8858C44.162 34.0878 43.694 34.1059 43.418 33.3059C42.828 31.5899 42.142 29.9079 41.52 28.1999C41.328 27.6739 41.062 27.4119 40.45 27.4179C37.384 27.4459 34.318 27.4438 31.254 27.4198C30.688 27.4158 30.412 27.6319 30.226 28.1419C29.604 29.8499 28.894 31.5259 28.338 33.2519C28.078 34.0619 27.668 34.0999 26.946 33.8899C27.616 32.0839 28.258 30.3098 28.926 28.5498C30.892 23.3838 32.872 18.2238 34.834 13.0578C35.026 12.5498 35.23 12.2379 35.866 12.2359C36.512 12.2319 36.706 12.5698 36.896 13.0658C38.326 16.8238 39.77 20.5778 41.208 24.3338C42.376 27.3878 43.542 30.4418 44.71 33.4958C44.75 33.6098 44.788 33.7258 44.844 33.8858ZM40.746 26.3078C39.098 21.9978 37.504 17.8338 35.912 13.6698C35.832 13.6698 35.752 13.6659 35.67 13.6639C34.114 17.8399 32.558 22.0138 30.958 26.3078C34.278 26.3078 37.442 26.3078 40.746 26.3078Z" fill="white"/>
<path d="M81.5341 33.8797C80.7601 34.1557 80.3621 33.9596 80.1021 33.2296C79.5001 31.5436 78.798 29.8937 78.1801 28.2137C77.9701 27.6437 77.676 27.4117 77.0461 27.4177C74.0321 27.4497 71.0181 27.4477 68.0041 27.4177C67.4021 27.4117 67.1161 27.6477 66.9221 28.1797C66.3001 29.8877 65.6141 31.5696 65.0281 33.2896C64.7741 34.0356 64.3581 34.0997 63.6121 33.8777C64.3321 31.9757 65.0321 30.1157 65.7421 28.2597C67.6701 23.2177 69.6021 18.1777 71.5261 13.1357C71.7041 12.6677 71.8161 12.2457 72.4961 12.2337C73.1861 12.2217 73.3701 12.6017 73.5681 13.1157C76.1321 19.7757 78.7101 26.4297 81.2801 33.0877C81.3721 33.3277 81.4381 33.5757 81.5341 33.8797ZM72.6081 13.7116C72.5341 13.6976 72.4621 13.6836 72.3881 13.6696C70.8201 17.8436 69.2501 22.0156 67.6381 26.2976C70.9921 26.2976 74.1321 26.2976 77.4561 26.2976C75.8081 22.0156 74.2081 17.8656 72.6081 13.7116Z" fill="white"/>
<path d="M22.878 31.7281C23.132 32.4581 22.9281 32.9179 22.2701 33.2199C16.074 36.0679 7.23405 33.456 6.30005 24.62C5.85805 20.436 7.04205 16.8279 10.416 14.0819C13.402 11.6559 18.8301 11.292 22.1141 13.308C22.7761 13.714 22.6081 14.238 22.5881 14.902C22.3561 14.776 22.1821 14.7 22.0261 14.598C16.0681 10.692 8.09407 14.558 7.46207 21.666C7.27607 23.764 7.42607 25.814 8.33407 27.762C10.2921 31.964 14.3581 33.542 18.4001 33.144C19.1701 33.068 19.9441 32.902 20.6801 32.668C21.4181 32.436 22.11 32.0641 22.878 31.7281Z" fill="white"/>
<path d="M61.698 42.772C60.494 42.268 59.372 41.65 58.172 41.334C56.702 40.948 55.228 41.166 53.924 42.058C51.898 43.444 51.558 46.614 53.384 48.246C54.254 49.022 55.366 49.548 56.418 50.092C57.59 50.7 58.85 51.1381 60.012 51.7601C62.154 52.9061 63.134 55.0361 62.774 57.5361C62.434 59.8961 60.868 61.6681 58.568 62.2001C56.162 62.7561 53.884 62.3941 51.738 61.1481C51.06 60.7541 50.89 60.2421 51.15 59.4501C51.572 59.7101 51.96 59.95 52.346 60.186C54.26 61.36 56.32 61.704 58.478 61.102C60.02 60.674 61.136 59.7061 61.518 58.0721C61.928 56.3161 61.704 54.6641 60.294 53.43C59.568 52.7961 58.666 52.3361 57.792 51.8981C56.634 51.3161 55.392 50.9021 54.25 50.2961C51.648 48.9181 50.67 46.878 51.218 44.188C51.676 41.93 53.686 40.342 56.416 40.144C58.006 40.028 59.498 40.3961 60.908 41.1661C61.634 41.5661 61.914 42.084 61.698 42.772Z" fill="white"/>
<path d="M58.9101 14.8298C58.5861 14.6118 58.334 14.44 58.082 14.272C56.292 13.072 54.352 12.742 52.288 13.356C50.778 13.802 49.864 14.88 49.598 16.396C49.312 18.024 49.632 19.55 51.082 20.554C51.928 21.138 52.886 21.566 53.818 22.016C54.916 22.546 56.052 22.994 57.146 23.528C59.784 24.816 60.254 27.398 59.962 29.568C59.622 32.102 58.028 33.538 55.646 34.09C53.302 34.634 51.064 34.244 48.98 32.992C48.312 32.59 48.25 32.078 48.444 31.36C49.11 31.744 49.71 32.142 50.35 32.454C52.232 33.37 54.166 33.524 56.164 32.824C59.728 31.576 59.574 26.81 57.59 25.32C56.57 24.554 55.37 24.018 54.224 23.43C53.256 22.934 52.214 22.576 51.264 22.052C48.966 20.784 47.958 18.6 48.468 16.168C48.942 13.908 50.738 12.336 53.258 12.052C55.034 11.852 56.726 12.174 58.274 13.106C59.058 13.574 59.1041 13.7038 58.9101 14.8298Z" fill="white"/>
<path d="M17.44 73.7261C17.44 74.3061 17.464 74.8201 17.424 75.3261C17.412 75.4801 17.222 75.6201 17.114 75.7661C17.006 75.6241 16.804 75.4801 16.802 75.3381C16.782 73.3121 16.774 71.2881 16.81 69.2621C16.814 69.0681 17.106 68.7341 17.29 68.7141C18.028 68.6361 18.806 68.5241 19.518 68.6721C20.868 68.9501 21.514 70.1681 21.28 71.6961C21.078 73.0141 19.99 73.8621 18.54 73.8181C18.212 73.8101 17.884 73.7661 17.44 73.7261ZM17.446 71.1461C17.446 71.6121 17.38 72.0941 17.472 72.5401C17.524 72.7921 17.806 73.1321 18.042 73.1881C18.868 73.3841 19.656 73.2281 20.214 72.5181C20.764 71.8181 20.764 71.0101 20.448 70.2321C20.114 69.4141 19.382 69.1521 18.552 69.1281C17.56 69.1001 17.448 69.2161 17.444 70.2141C17.444 70.5261 17.444 70.8361 17.446 71.1461Z" fill="white"/>
<path d="M58.188 73.0458C58.024 73.2218 57.8941 73.4657 57.6901 73.5677C56.4601 74.1937 54.85 73.7298 54.202 72.5958C53.496 71.3618 53.8381 69.6698 54.9761 68.8998C55.7041 68.4098 56.4981 68.4097 57.2801 68.7637C58.0661 69.1177 58.2821 69.8337 58.3761 70.6117C58.4321 71.0717 58.1941 71.2038 57.7801 71.1998C56.8961 71.1918 56.0121 71.2058 55.1301 71.1998C54.5961 71.1958 54.438 71.3998 54.62 71.9258C54.982 72.9698 55.96 73.4717 57.128 73.1597C57.426 73.0797 57.7121 72.9597 58.0041 72.8617C58.0661 72.9217 58.126 72.9838 58.188 73.0458ZM57.5841 70.6077C57.5941 69.5957 57.0361 69.0517 56.1121 69.1077C55.2301 69.1597 54.6881 69.7577 54.7641 70.6077C55.7041 70.6077 56.6441 70.6077 57.5841 70.6077Z" fill="white"/>
<path d="M10.4881 73.094C10.2901 73.27 10.1201 73.51 9.89007 73.61C8.88607 74.05 7.53805 73.812 6.83005 73.11C6.06405 72.348 5.85606 71.07 6.32406 69.994C6.83206 68.828 8.08206 68.258 9.29406 68.638C10.1881 68.92 10.7801 69.872 10.5601 70.784C10.5181 70.958 10.174 71.164 9.96005 71.176C9.10605 71.222 8.24806 71.21 7.39206 71.194C6.79406 71.184 6.66005 71.424 6.87005 71.966C7.26405 72.976 8.28607 73.468 9.42807 73.162C9.72207 73.082 10.008 72.964 10.296 72.866C10.36 72.942 10.4241 73.018 10.4881 73.094ZM9.87805 70.614C9.90805 69.642 9.40207 69.11 8.51007 69.104C7.60607 69.1 6.93805 69.758 6.99005 70.614C7.95405 70.614 8.91805 70.614 9.87805 70.614Z" fill="white"/>
<path d="M40.9181 71.1759C40.9281 72.7219 39.8841 73.8059 38.3761 73.8219C36.9161 73.8379 35.8181 72.6959 35.8301 71.1739C35.8421 69.6479 36.8621 68.5579 38.3001 68.5379C39.8541 68.5159 40.9081 69.5759 40.9181 71.1759ZM40.2341 71.2179C40.2421 69.9719 39.4641 69.0919 38.3561 69.0899C37.3181 69.0899 36.5141 69.9919 36.5001 71.1739C36.4861 72.3419 37.2961 73.2539 38.3481 73.2539C39.4421 73.2539 40.2261 72.4079 40.2341 71.2179Z" fill="white"/>
<path d="M23.0961 69.3057C23.1261 69.1737 23.136 68.9237 23.188 68.9157C23.882 68.7977 24.592 68.6017 25.28 68.6557C25.906 68.7057 26.2181 69.2697 26.2341 69.9037C26.2601 70.9917 26.2741 72.0817 26.2421 73.1697C26.2361 73.3537 25.9761 73.6797 25.8281 73.6817C25.0601 73.7017 24.278 73.7097 23.526 73.5797C22.952 73.4817 22.61 73.0137 22.582 72.3937C22.554 71.7697 22.8681 71.3357 23.4281 71.1357C23.8601 70.9817 24.328 70.9197 24.784 70.8457C25.126 70.7897 25.5681 70.9157 25.5881 70.3617C25.6081 69.8277 25.478 69.3097 24.878 69.2357C24.334 69.1677 23.7641 69.2717 23.0961 69.3057ZM25.586 72.2717C25.654 71.7297 25.614 71.3037 24.86 71.3497C23.88 71.4117 23.2321 71.7677 23.2521 72.3397C23.2721 72.8997 23.84 73.2137 24.74 73.2677C25.518 73.3137 25.692 72.9317 25.586 72.2717Z" fill="white"/>
<path d="M81.5621 71.1661C81.5661 72.7881 80.6101 73.8061 79.0741 73.8221C77.5881 73.8361 76.5221 72.7321 76.5301 71.1841C76.5381 69.5801 77.5361 68.5341 79.0581 68.5381C80.6101 68.5421 81.5581 69.5381 81.5621 71.1661ZM80.9361 71.194C80.9341 69.948 80.1401 69.0721 79.0301 69.0921C77.9501 69.1101 77.1721 69.9701 77.1581 71.1641C77.1441 72.3761 77.9621 73.2681 79.0761 73.2541C80.1641 73.2401 80.9381 72.384 80.9361 71.194Z" fill="white"/>
<path d="M60.092 69.3298C60.11 69.1918 60.108 68.9718 60.146 68.9638C60.86 68.8298 61.582 68.6138 62.294 68.6398C62.924 68.6618 63.276 69.2178 63.3 69.8438C63.342 70.9578 63.342 72.0718 63.308 73.1858C63.302 73.3638 63.04 73.6758 62.886 73.6818C62.142 73.7158 61.384 73.7398 60.654 73.6218C60.024 73.5218 59.608 73.0758 59.586 72.3718C59.566 71.6618 59.978 71.2618 60.592 71.0658C60.982 70.9398 61.402 70.9118 61.808 70.8438C62.156 70.7858 62.646 70.9818 62.662 70.3438C62.676 69.7598 62.488 69.2678 61.858 69.2158C61.306 69.1658 60.742 69.2798 60.092 69.3298ZM62.656 72.3538C62.67 71.8218 62.79 71.3079 61.98 71.3479C60.952 71.3979 60.276 71.7318 60.268 72.3038C60.26 72.9078 60.862 73.2318 61.868 73.2678C62.612 73.2938 62.752 72.9218 62.656 72.3538Z" fill="white"/>
<path d="M48.7701 73.0921C48.6141 73.2701 48.4941 73.5201 48.2981 73.6121C47.2981 74.0981 45.8901 73.7581 45.1761 72.8961C44.4501 72.0201 44.3921 70.5561 45.0501 69.6201C45.7221 68.6621 46.9981 68.2481 48.0921 68.6781C48.3261 68.7701 48.4901 69.0381 48.6221 69.3321C47.4341 69.0661 46.3401 68.8401 45.5741 70.0361C45.1321 70.7281 45.1761 71.8281 45.6801 72.4602C46.4981 73.4862 47.5281 73.3041 48.5901 72.8961C48.6501 72.9601 48.7101 73.0281 48.7701 73.0921Z" fill="white"/>
<path d="M14.7721 69.3758C14.3761 69.2778 13.9621 69.0638 13.5861 69.1158C13.2401 69.1618 12.7461 69.4398 12.6621 69.7178C12.5861 69.9678 12.9101 70.4458 13.1821 70.6698C13.4881 70.9198 13.9421 70.9818 14.3161 71.1538C14.9081 71.4238 15.1461 71.9198 15.0761 72.5458C15.0081 73.1718 14.6901 73.6558 14.0341 73.7218C13.5061 73.7738 12.9541 73.7318 12.4341 73.6318C12.2261 73.5898 12.0721 73.2738 11.8921 73.0838C11.9421 73.0258 11.9941 72.9658 12.0441 72.9078C12.4501 73.0258 12.8481 73.1918 13.2621 73.2478C13.7721 73.3158 14.2881 73.2238 14.4501 72.6298C14.6201 72.0038 14.1821 71.7558 13.6841 71.5698C13.3221 71.4338 12.9541 71.3018 12.6121 71.1178C12.0361 70.8098 11.8601 70.2838 11.9521 69.6678C12.0441 69.0578 12.4341 68.6738 13.0261 68.5998C13.4781 68.5438 13.9581 68.5818 14.4021 68.6818C14.6181 68.7278 14.7801 69.0157 14.9661 69.1937C14.9021 69.2557 14.8381 69.3158 14.7721 69.3758Z" fill="white"/>
<path d="M32.024 73.0961C31.852 73.2761 31.714 73.5341 31.504 73.6261C30.488 74.0721 29.06 73.7461 28.422 72.9641C27.688 72.0621 27.628 70.6381 28.28 69.5961C28.818 68.7381 30.07 68.3081 31.186 68.6241C31.54 68.7241 31.978 68.8021 31.798 69.4421C30.646 69.0461 29.504 68.8521 28.75 70.0681C28.294 70.8021 28.284 71.6321 28.794 72.3521C29.606 73.4921 30.732 73.3221 31.884 72.8941C31.932 72.9621 31.978 73.0301 32.024 73.0961Z" fill="white"/>
<path d="M71.3041 68.5898C71.5061 68.7938 71.7941 68.9618 71.8921 69.2058C72.2781 70.1638 72.6001 71.1498 72.9561 72.1198C73.0421 72.3558 73.1601 72.5778 73.3641 73.0378C73.8541 71.7518 74.2661 70.6778 74.6761 69.6038C74.7501 69.4098 74.7841 69.1878 74.9021 69.0298C75.0281 68.8578 75.2341 68.7438 75.4021 68.6058C75.4641 68.6498 75.5281 68.6918 75.5901 68.7358C75.5281 68.9678 75.4881 69.2098 75.4021 69.4318C74.9181 70.6598 74.4401 71.8898 73.9181 73.1018C73.8141 73.3418 73.5281 73.6538 73.3241 73.6558C73.1281 73.6558 72.8461 73.3338 72.7461 73.0938C72.2281 71.8518 71.7581 70.5918 71.2741 69.3358C71.2021 69.1518 71.1501 68.9598 71.0901 68.7718C71.1601 68.7098 71.2321 68.6498 71.3041 68.5898Z" fill="white"/>
<path d="M67.6741 73.4658C67.3461 73.5838 67.0241 73.7678 66.6881 73.8018C66.1421 73.8538 65.6161 73.6917 65.4541 73.0938C65.3341 72.6537 65.3241 72.1778 65.3061 71.7178C65.2821 71.0978 65.3401 70.4718 65.2781 69.8558C65.2561 69.6278 65.0021 69.4178 64.8421 69.2098C64.7601 69.0998 64.6181 69.0238 64.5701 68.9037C64.5501 68.8577 64.7061 68.6637 64.7901 68.6597C65.3321 68.6357 65.2741 68.2538 65.3181 67.8898C65.3381 67.7318 65.5181 67.5938 65.6261 67.4478C65.7341 67.5898 65.9461 67.7418 65.9341 67.8718C65.8721 68.5358 66.2141 68.6578 66.7761 68.6498C66.9741 68.6478 67.1761 68.8338 67.3761 68.9338C67.1921 69.0278 66.9961 69.2178 66.8241 69.1978C66.0521 69.1098 65.8901 69.4918 65.9481 70.1558C65.9901 70.6458 65.9561 71.1398 65.9561 71.6318C65.9561 73.2118 66.0261 73.2798 67.5361 73.2078C67.5821 73.2938 67.6281 73.3798 67.6741 73.4658Z" fill="white"/>
<path d="M50.332 71.374C50.332 70.908 50.3841 70.434 50.3201 69.978C50.2041 69.138 50.6301 68.77 51.3681 68.664C51.7981 68.602 52.2421 68.598 52.676 68.624C52.79 68.63 52.8901 68.85 52.9961 68.97C52.8661 69.056 52.744 69.206 52.606 69.218C50.95 69.384 50.9481 69.38 50.9481 71.028C50.9481 71.674 50.972 72.324 50.934 72.968C50.92 73.206 50.7561 73.432 50.6601 73.662C50.5501 73.444 50.364 73.23 50.344 73.002C50.3 72.462 50.332 71.916 50.332 71.374Z" fill="white"/>
<path d="M69.1301 71.2081C69.1301 70.5081 69.112 69.8081 69.144 69.1121C69.15 68.9581 69.342 68.8121 69.448 68.6621C69.56 68.8061 69.768 68.9501 69.77 69.0961C69.794 70.4941 69.794 71.8921 69.77 73.2901C69.768 73.4241 69.546 73.5541 69.426 73.6861C69.326 73.5341 69.148 73.3861 69.14 73.2281C69.108 72.5562 69.126 71.8821 69.126 71.2081H69.1301Z" fill="white"/>
<path d="M34.1701 71.1379C34.1721 71.8119 34.1921 72.4879 34.1561 73.1599C34.1461 73.3319 33.9521 73.4959 33.8441 73.6639C33.7381 73.5159 33.5441 73.3699 33.5401 73.2199C33.5161 71.8479 33.5161 70.4739 33.5401 69.0999C33.5421 68.9539 33.7481 68.8119 33.8581 68.6699C33.9621 68.8179 34.1461 68.9639 34.1541 69.1199C34.1881 69.7919 34.1701 70.4639 34.1701 71.1379Z" fill="white"/>
<path d="M70.1241 67.0839C69.7921 67.2919 69.5781 67.5299 69.4221 67.4979C69.2481 67.4619 69.0461 67.1899 69.0141 66.9959C68.9961 66.8839 69.3001 66.6059 69.4501 66.6139C69.6361 66.6239 69.8101 66.8499 70.1241 67.0839Z" fill="white"/>
<path d="M34.538 67.0859C34.204 67.2939 33.99 67.532 33.832 67.5C33.66 67.464 33.46 67.1899 33.428 66.9959C33.41 66.8859 33.716 66.6079 33.864 66.6179C34.05 66.6259 34.224 66.8519 34.538 67.0859Z" fill="white"/>
<path d="M81.424 61.376C78.782 54.526 76.132 47.68 73.504 40.824C73.3 40.292 73.01 40.138 72.468 40.124C71.894 40.11 71.718 40.414 71.546 40.862C69.294 46.778 67.028 52.688 64.772 58.602C64.378 59.634 64.016 60.678 63.624 61.758C64.336 61.986 64.732 61.91 64.978 61.212C65.598 59.45 66.3 57.718 66.936 55.962C67.116 55.464 67.392 55.286 67.912 55.288C70.976 55.306 74.042 55.306 77.106 55.288C77.658 55.284 77.948 55.474 78.142 55.998C78.782 57.726 79.5 59.424 80.118 61.16C80.39 61.9179 80.812 62.022 81.52 61.766C81.482 61.614 81.468 61.488 81.424 61.376ZM67.658 54.18C69.264 49.902 70.838 45.722 72.408 41.54C72.482 41.552 72.554 41.564 72.628 41.578C74.234 45.74 75.838 49.9 77.488 54.18C74.172 54.18 71.024 54.18 67.658 54.18Z" fill="white"/>
</svg>
