<svg width="94" height="92" viewBox="0 0 94 92" fill="none" xmlns="http://www.w3.org/2000/svg">
<path d="M89.0621 48.508L85.2961 47.302C84.8141 47.146 84.4341 46.762 84.2801 46.272C83.4861 43.75 82.2881 41.38 80.7201 39.23C80.0061 38.25 79.2101 37.314 78.3421 36.426C78.8981 33.988 79.2001 31.23 79.1621 28.848C79.1061 25.44 78.4241 23.44 77.0781 22.736C76.3521 22.356 74.1481 21.202 62.2121 26.666C61.9301 26.796 61.6661 26.954 61.4221 27.138C60.6181 26.922 59.7961 26.722 58.9681 26.542C58.8681 26.52 58.7641 26.502 58.6641 26.48C59.6321 24.368 60.1961 22.072 60.3021 19.704C60.3361 18.964 59.7621 18.34 59.0241 18.308C58.2881 18.272 57.6601 18.846 57.6281 19.584C57.4541 23.478 55.8381 27.142 53.0801 29.902C51.4321 31.55 49.5001 32.748 47.4441 33.502C43.8761 33.002 40.2421 33.002 36.6741 33.502C34.6161 32.748 32.6861 31.55 31.0381 29.902C28.0941 26.958 26.4741 23.044 26.4741 18.882C26.4741 14.718 28.0961 10.806 31.0381 7.86203C33.9821 4.91803 37.8961 3.29803 42.0601 3.29803C46.2221 3.29803 50.1381 4.91803 53.0801 7.86203C54.2621 9.04603 55.2401 10.394 55.9861 11.874C56.3201 12.534 57.1221 12.8 57.7821 12.468C58.4421 12.136 58.7081 11.332 58.3741 10.672C57.5001 8.93803 56.3561 7.35602 54.9721 5.97202C51.5221 2.52202 46.9361 0.624023 42.0581 0.624023C37.1801 0.624023 32.5941 2.52202 29.1441 5.97202C25.6941 9.42002 23.7961 14.008 23.7961 18.884C23.7961 23.762 25.6961 28.348 29.1441 31.798C30.1401 32.794 31.2221 33.648 32.3661 34.364C31.5341 34.58 30.7101 34.824 29.8941 35.096C29.1941 35.33 28.8141 36.088 29.0501 36.79C29.2861 37.492 30.0441 37.868 30.7441 37.634C38.0401 35.196 46.0781 35.196 53.3741 37.634C53.5161 37.682 53.6581 37.702 53.7981 37.702C54.3581 37.702 54.8801 37.348 55.0661 36.788C55.3001 36.088 54.9221 35.33 54.2221 35.094C53.4061 34.822 52.5801 34.578 51.7481 34.362C52.8941 33.646 53.9761 32.79 54.9701 31.796C55.8501 30.916 56.6281 29.954 57.3021 28.934C57.6721 29.004 58.0381 29.08 58.3981 29.158C58.8781 29.262 59.3561 29.374 59.8301 29.492C59.8161 29.55 59.8001 29.608 59.7881 29.666C59.1361 32.762 59.1781 35.5 59.9141 37.806C60.5761 39.878 61.7701 41.556 63.4621 42.792C65.4581 44.252 67.8661 44.882 70.0481 44.882C71.6901 44.882 73.2041 44.526 74.3161 43.896C75.5741 43.184 76.6281 41.684 77.4621 39.428C77.8481 39.878 78.2121 40.34 78.5581 40.812C79.9541 42.724 81.0201 44.834 81.7261 47.078C82.1421 48.396 83.1701 49.434 84.4781 49.854L88.2441 51.06C89.2321 51.376 89.8961 52.286 89.8961 53.324V59.568C89.8961 60.606 89.2321 61.514 88.2441 61.832L82.1761 63.774C81.2061 64.086 80.3841 64.754 79.8621 65.652C77.4781 69.772 73.7321 73.18 68.7221 75.784C68.1441 76.084 67.7421 76.6241 67.6221 77.2621L65.6781 87.552C65.6261 87.836 65.3761 88.04 65.0881 88.04H58.7701C58.4821 88.04 58.2341 87.834 58.1801 87.552L57.1021 81.8661C56.8921 80.7461 55.8421 80.004 54.7121 80.174C51.9921 80.586 49.1861 80.794 46.3781 80.794C44.2901 80.794 42.2241 80.678 40.2461 80.448C39.1521 80.322 38.1321 81.068 37.9281 82.148L36.9061 87.552C36.8521 87.836 36.6041 88.04 36.3161 88.04H30.0001C29.7101 88.04 29.4621 87.8341 29.4101 87.5461L27.5381 77.828C27.4161 77.202 27.0241 76.67 26.4581 76.368C17.9201 71.81 13.4101 64.196 13.4101 54.35C13.4101 49.374 14.4981 44.974 16.6461 41.274C18.6481 37.82 21.5741 34.964 25.3421 32.784C25.9801 32.414 26.2001 31.596 25.8301 30.956C25.4601 30.316 24.6421 30.098 24.0021 30.468C16.6981 34.694 12.2921 41.214 11.0801 49.492C10.9521 49.48 10.8221 49.47 10.6941 49.456C10.7181 48.562 10.5561 47.66 10.2041 46.786C9.4281 44.856 7.83209 43.464 6.14209 43.238C4.80809 43.058 3.5401 43.626 2.6601 44.788C1.3841 46.474 1.5921 47.81 1.9921 48.632C2.6661 50.022 4.39809 51.004 7.27209 51.622C7.19409 51.74 7.10608 51.86 7.01208 51.978C5.31409 54.108 3.31208 54.5781 2.01208 54.6241C1.25208 54.6501 0.64209 55.26 0.64209 56.022V56.028C0.64209 56.778 1.2341 57.39 1.9841 57.424C2.0801 57.43 2.18209 57.432 2.28409 57.432C3.92809 57.432 6.56808 56.826 9.10208 53.646C9.50208 53.144 9.82809 52.616 10.0781 52.068C10.3301 52.096 10.5741 52.1201 10.8061 52.1421C10.7621 52.8661 10.7361 53.602 10.7361 54.35C10.7361 59.922 12.0641 64.8901 14.6841 69.1161C17.1001 73.0121 20.5561 76.202 24.9661 78.602L26.7841 88.05C27.0761 89.596 28.4301 90.718 30.0041 90.718H36.3221C37.8941 90.718 39.2481 89.596 39.5421 88.05L40.4661 83.164C42.3861 83.368 44.3761 83.472 46.3841 83.472C49.1421 83.472 51.8981 83.2801 54.5821 82.9001L55.5561 88.05C55.8481 89.596 57.2021 90.716 58.7761 90.716H65.0941C66.6681 90.716 68.0201 89.594 68.3141 88.048L70.2061 78.0301C75.5501 75.2041 79.5801 71.49 82.1821 66.992C82.3701 66.668 82.6581 66.4301 82.9961 66.3221L89.0641 64.38C91.1641 63.706 92.5761 61.772 92.5761 59.568V53.324C92.5741 51.114 91.1641 49.18 89.0621 48.508ZM76.2841 32.606C75.7681 37.01 74.3881 40.778 72.9981 41.564C71.4201 42.458 67.7781 42.63 65.0441 40.628C62.3061 38.626 61.3941 35.024 62.4081 30.214C62.5101 29.73 62.8541 29.312 63.3261 29.096C70.0241 26.03 73.8861 25.028 75.3221 25.028C75.5381 25.028 75.7001 25.052 75.8081 25.092C76.2381 25.55 76.8021 28.162 76.2841 32.606ZM4.39609 47.46C4.25809 47.174 4.58408 46.672 4.79208 46.398C5.12008 45.964 5.4221 45.876 5.6521 45.876C5.7001 45.876 5.7441 45.88 5.7861 45.886C6.4021 45.968 7.26209 46.646 7.72009 47.78C7.82809 48.048 7.96809 48.49 8.00009 49.042C6.14609 48.658 4.70809 48.106 4.39609 47.46Z" fill="white"/>
<path d="M41.9661 27.274C39.0421 27.226 37.0601 25.6481 37.0601 24.4901C37.0601 23.9241 37.5561 23.1461 38.1461 23.1461C38.9241 23.1461 39.5601 24.7981 41.9661 24.9861V19.4441C39.8441 18.6901 37.4861 17.8401 37.4861 14.8201C37.4861 11.8481 39.7261 10.6681 41.9661 10.4321V9.74805C41.9661 9.46605 42.25 9.20605 42.652 9.20605C43.006 9.20605 43.36 9.46605 43.36 9.74805V10.386C44.964 10.434 47.2281 10.9281 47.2281 12.0841C47.2281 12.5321 46.8981 13.4281 46.1901 13.4281C45.6241 13.4281 45.012 12.6741 43.36 12.5561V17.3441C45.412 18.0981 47.652 19.1361 47.652 22.3441C47.652 25.2441 45.906 26.8481 43.36 27.2041V28.0061C43.36 28.2901 43.006 28.5481 42.652 28.5481C42.25 28.5481 41.9661 28.2901 41.9661 28.0061V27.274ZM42.11 16.8961V12.6041C40.788 12.7701 39.8461 13.3581 39.8461 14.5861C39.8441 15.9281 40.86 16.4241 42.11 16.8961ZM43.2161 19.9621V24.938C44.4901 24.702 45.2921 23.9481 45.2921 22.6041C45.2921 21.1181 44.3741 20.4581 43.2161 19.9621Z" fill="white"/>
</svg>
