<svg width="98" height="64" viewBox="0 0 98 64" fill="none" xmlns="http://www.w3.org/2000/svg">
<path d="M65.9264 35.5499L57.8184 31.9459C57.2444 31.6919 56.8763 31.1219 56.8763 30.4959V28.2699C59.5983 26.0999 61.3503 22.7579 61.3503 19.0139V15.8799C62.2463 15.3839 62.8403 14.4259 62.8403 13.3519V13.0479C62.8403 6.52388 57.5323 1.21387 51.0063 1.21387H48.0244C41.5004 1.21387 36.1903 6.52188 36.1903 13.0479V15.8079C36.1903 16.7519 36.5964 17.6059 37.3024 18.1519C37.4244 18.2439 37.5504 18.3259 37.6804 18.3959V19.0119C37.6804 22.7559 39.4304 26.0979 42.1544 28.2679V30.4939C42.1544 31.1199 41.7843 31.6899 41.2103 31.9439L33.1044 35.5479C30.4484 36.7279 28.7324 39.3679 28.7324 42.2739V60.7659C28.7324 61.5359 29.3584 62.1619 30.1284 62.1619C30.8984 62.1619 31.5223 61.5359 31.5223 60.7659V42.2739C31.5223 42.1119 31.5344 41.9519 31.5504 41.7939L35.2864 45.5299C35.8684 46.1119 36.1884 46.8839 36.1884 47.7059V60.7659C36.1884 61.5359 36.8124 62.1619 37.5844 62.1619C38.3544 62.1619 38.9784 61.5359 38.9784 60.7659V47.7059C38.9784 46.1379 38.3684 44.6639 37.2584 43.5559L32.8064 39.1019C33.2084 38.6859 33.6883 38.3399 34.2363 38.0979L42.2064 34.5559L48.1184 40.4659V60.7639C48.1184 61.5339 48.7443 62.1599 49.5123 62.1599C50.2823 62.1599 50.9083 61.5339 50.9083 60.7639V40.4659L56.8203 34.5559L64.7904 38.0979C65.3384 38.3419 65.8203 38.6859 66.2203 39.1019L61.7664 43.5559C60.6584 44.6639 60.0483 46.1379 60.0483 47.7059V60.7659C60.0483 61.5359 60.6724 62.1619 61.4424 62.1619C62.2124 62.1619 62.8384 61.5359 62.8384 60.7659V47.7059C62.8384 46.8839 63.1584 46.1099 63.7404 45.5299L67.4763 41.7939C67.4923 41.9519 67.5044 42.1119 67.5044 42.2739V60.7659C67.5044 61.5359 68.1283 62.1619 68.8983 62.1619C69.6683 62.1619 70.2924 61.5359 70.2924 60.7659V42.2739C70.2964 39.3699 68.5824 36.7299 65.9264 35.5499ZM40.4724 19.0139V18.3859C41.3444 18.0419 42.1944 17.4919 43.0084 16.7419C43.5744 16.2199 43.6104 15.3379 43.0864 14.7699C42.5644 14.2039 41.6823 14.1679 41.1163 14.6899C40.4183 15.3339 39.7203 15.7499 39.0443 15.9259C39.0283 15.9299 39.0163 15.9319 39.0063 15.9319C38.9963 15.9119 38.9824 15.8719 38.9824 15.8059V13.0459C38.9824 8.05987 43.0384 4.00388 48.0244 4.00388H51.0063C55.9923 4.00388 60.0483 8.06187 60.0483 13.0459V13.3499C60.0483 13.3939 60.0223 13.4339 59.9863 13.4419C51.6303 15.0919 47.4423 11.9819 46.0283 10.5679C45.4843 10.0239 44.6004 10.0239 44.0564 10.5679C43.5104 11.1119 43.5104 11.9959 44.0564 12.5419C48.3884 16.8739 54.7104 16.9519 58.5604 16.4899V19.0099C58.5604 23.9959 54.5024 28.0519 49.5164 28.0519C44.5304 28.0519 40.4724 23.9999 40.4724 19.0139ZM49.5164 30.8479C51.1364 30.8479 52.6804 30.5199 54.0864 29.9299V30.4979C54.0864 31.2999 54.3083 32.0679 54.7043 32.7319L49.5183 37.9179L44.3324 32.7299C44.7264 32.0659 44.9503 31.2999 44.9503 30.4959V29.9279C46.3543 30.5199 47.8984 30.8479 49.5164 30.8479Z" fill="white"/>
<path d="M27.0521 24.9779C27.0521 21.3379 25.1602 18.1339 22.3102 16.2899C22.4862 15.7259 22.5781 15.1339 22.5781 14.5399C22.5781 11.3039 19.9461 8.67188 16.7081 8.67188C13.4721 8.67188 10.8381 11.3059 10.8381 14.5399C10.8381 15.1419 10.9301 15.7279 11.1061 16.2899C8.25608 18.1339 6.36414 21.3379 6.36414 24.9779V27.9599C6.36414 31.4839 8.13813 34.6018 10.8381 36.4698V39.5379C10.8381 40.1419 10.5021 40.6859 9.96008 40.9559L5.13416 43.3699C3.13416 44.3719 1.89014 46.3819 1.89014 48.6199V60.7659C1.89014 61.5379 2.51618 62.1619 3.28418 62.1619C4.05618 62.1619 4.68018 61.5379 4.68018 60.7659V49.2239L6.95215 51.4958C7.53415 52.0759 7.85413 52.8499 7.85413 53.6719V60.7659C7.85413 61.5379 8.47812 62.1619 9.25012 62.1619C10.0201 62.1619 10.6442 61.5379 10.6442 60.7659V53.6719C10.6442 52.1039 10.0341 50.6299 8.92615 49.5219L5.76208 46.3578C5.74608 46.3419 5.73011 46.3299 5.71411 46.3159C5.91411 46.1399 6.13613 45.9879 6.38013 45.8639L11.2062 43.4519C11.4542 43.3279 11.6841 43.1819 11.8981 43.0199L15.3102 46.4319V60.7659C15.3102 61.5379 15.9341 62.1619 16.7041 62.1619C17.4741 62.1619 18.1001 61.5379 18.1001 60.7659V46.4319L21.5121 43.0199C21.7261 43.1839 21.9581 43.3299 22.2041 43.4519L23.5342 44.1179C23.7342 44.2199 23.9481 44.2659 24.1581 44.2659C24.6701 44.2659 25.1621 43.9839 25.4081 43.4939C25.7521 42.8059 25.4742 41.9679 24.7842 41.6219L23.4541 40.9559C22.9121 40.6859 22.5762 40.1419 22.5762 39.5359V36.4679C25.2762 34.5999 27.0502 31.4819 27.0502 27.9579L27.0521 24.9779ZM13.6321 14.5399C13.6321 12.8419 15.0121 11.4619 16.7101 11.4619C18.4081 11.4619 19.7902 12.8439 19.7902 14.5399C19.7902 14.7279 19.7721 14.9099 19.7421 15.0899C18.7841 14.7959 17.7662 14.6359 16.7122 14.6359C15.6602 14.6359 14.6442 14.7959 13.6862 15.0879C13.6542 14.9079 13.6321 14.7279 13.6321 14.5399ZM16.7101 17.4259C20.8741 17.4259 24.2621 20.8139 24.2621 24.9779V25.4839C18.4521 27.2639 14.9921 22.8439 14.8441 22.6499C14.6021 22.3259 14.2301 22.1239 13.8281 22.0959C13.4241 22.0679 13.0281 22.2139 12.7421 22.4999C11.4101 23.8319 10.1061 24.4739 9.16406 24.7859C9.26606 20.7099 12.6121 17.4259 16.7101 17.4259ZM19.9341 40.6579L16.7101 43.8819L13.4861 40.6579C13.5801 40.2979 13.6321 39.9239 13.6321 39.5379V37.8339C14.6041 38.1379 15.6381 38.3019 16.7101 38.3019C17.7821 38.3019 18.8162 38.1379 19.7902 37.8339V39.5379C19.7902 39.9239 19.8401 40.2979 19.9341 40.6579ZM16.7101 35.5119C12.5461 35.5119 9.15808 32.1239 9.15808 27.9599V27.6699C10.2701 27.4139 11.9201 26.8199 13.6421 25.4359C14.2501 26.0099 15.1201 26.7159 16.2281 27.3199C17.5381 28.0339 19.3482 28.6959 21.5602 28.6959C22.4002 28.6959 23.3001 28.5979 24.2501 28.3739C24.0341 32.3479 20.7361 35.5119 16.7101 35.5119Z" fill="white"/>
<path d="M93.8942 40.3879L86.0862 36.4839C85.5442 36.2139 85.2081 35.6679 85.2081 35.0639V33.0859C87.0361 31.4619 88.1901 29.0979 88.1901 26.4679V24.8799C88.2221 24.8799 88.2541 24.8799 88.2861 24.8799C89.0561 24.8799 89.6802 24.2559 89.6802 23.4839V20.5019C89.6802 15.6219 85.7101 11.6499 80.8281 11.6499H77.8461C72.9661 11.6499 68.9941 15.6219 68.9941 20.5019V23.4839C68.9941 24.2539 69.6201 24.8799 70.3901 24.8799C70.4021 24.8799 70.4341 24.8799 70.4861 24.8779V26.4659C70.4861 29.0979 71.6421 31.4619 73.4681 33.0839V35.0599C73.4681 35.6659 73.1322 36.2099 72.5922 36.4799C71.9022 36.8239 71.6221 37.6619 71.9681 38.3519C72.2121 38.8399 72.7041 39.1219 73.2181 39.1219C73.4261 39.1219 73.6401 39.0759 73.8401 38.9759C74.0881 38.8519 74.3181 38.7059 74.5321 38.5439L77.9441 41.9559V60.7639C77.9441 61.5359 78.5701 62.1599 79.3401 62.1599C80.1101 62.1599 80.7361 61.5359 80.7361 60.7639V41.9559L84.1461 38.5439C84.3601 38.7079 84.5921 38.8539 84.8381 38.9759L92.3942 42.7539L90.1022 45.0459C88.9942 46.1539 88.3842 47.6279 88.3842 49.1959V60.7639C88.3842 61.5339 89.0081 62.1599 89.7781 62.1599C90.5481 62.1599 91.1741 61.5339 91.1741 60.7639V49.1999C91.1741 48.3779 91.4942 47.6039 92.0762 47.0239L94.2461 44.8539C94.3121 45.1059 94.3481 45.3699 94.3481 45.6399V60.7699C94.3481 61.5399 94.9721 62.1659 95.7421 62.1659C96.5121 62.1659 97.1381 61.5399 97.1381 60.7699V45.6399C97.1381 43.3999 95.8962 41.3879 93.8942 40.3879ZM71.7881 20.5039C71.7881 17.1619 74.5081 14.4419 77.8501 14.4419H80.8322C84.1742 14.4419 86.8942 17.1599 86.8942 20.5039V22.0539C80.8282 21.7259 77.1682 19.3659 77.1342 19.3439C76.8982 19.1859 76.6301 19.1099 76.3601 19.1099C76.0001 19.1099 75.6441 19.2499 75.3721 19.5179C74.0381 20.8519 72.7301 21.4959 71.7881 21.8059V20.5039ZM73.2802 24.2199C74.2581 23.8299 75.3961 23.2079 76.5541 22.2219C78.0201 22.9839 81.0841 24.3019 85.4021 24.7379V26.4699C85.4021 29.8119 82.6842 32.5299 79.3422 32.5299C76.0002 32.5299 73.2802 29.8119 73.2802 26.4699V24.2199ZM79.3401 35.3199C80.4221 35.3199 81.4581 35.1239 82.4181 34.7679V35.0639C82.4181 35.4499 82.4701 35.8239 82.5641 36.1839L79.3401 39.4079L76.1161 36.1839C76.2101 35.8239 76.2621 35.4499 76.2621 35.0639V34.7679C77.2221 35.1259 78.2581 35.3199 79.3401 35.3199Z" fill="white"/>
</svg>
