<svg width="82" height="82" viewBox="0 0 82 82" fill="none" xmlns="http://www.w3.org/2000/svg">
<path d="M77.5719 1.50977H72.1998C69.9978 1.50977 68.2139 3.29375 68.2139 5.48975V68.5538L73.5479 77.8918V80.2037C73.5479 80.9397 74.1479 81.5378 74.8839 81.5378C75.6199 81.5378 76.2198 80.9397 76.2198 80.2037V77.8918L81.5538 68.5538V5.48975C81.5518 3.29375 79.7679 1.50977 77.5719 1.50977ZM70.8839 13.5138H78.8799V16.1858H70.8839V13.5138ZM74.8818 74.8517L71.8479 69.5378H77.9159L74.8818 74.8517ZM78.8799 66.8677H70.8839V18.8477H78.8799V66.8677ZM70.8839 10.8498V5.48975C70.8839 4.76575 71.4679 4.18176 72.1919 4.18176H77.5638C78.2938 4.18176 78.8799 4.76775 78.8799 5.48975V10.8498H70.8839Z" fill="white"/>
<path d="M1.52197 1.50977V81.5417H62.88V1.50977H1.52197ZM4.19202 78.8698V4.18176H12.188V78.8698H4.19202ZM60.208 4.18176V78.8698H14.86V4.18176H60.208Z" fill="white"/>
<path d="M53.5403 33.5217V14.8497H21.5303V33.5217H53.5403ZM24.2002 17.5197H50.8762V30.8577H24.2002V17.5197Z" fill="white"/>
<path d="M46.8702 20.1837H28.1982V22.8537H46.8702V20.1837Z" fill="white"/>
<path d="M46.8702 25.5157H28.1982V28.1877H46.8702V25.5157Z" fill="white"/>
</svg>
