<svg width="98" height="64" viewBox="0 0 98 64" fill="none" xmlns="http://www.w3.org/2000/svg">
<path d="M96.3879 16.6497C96.3859 15.2057 95.9619 13.7417 95.0219 12.5337L87.486 2.89172C86.224 1.28772 84.3019 0.473727 82.3839 0.469727C81.2419 0.469727 80.0779 0.761717 79.0499 1.40372L71.702 5.97574C70.93 6.46774 69.6039 6.80773 68.3239 6.79773C67.3299 6.80173 66.368 6.60373 65.736 6.28973L58.5399 2.80371C57.3779 2.24571 56.0859 2.01573 54.7839 2.01373C52.9159 2.02173 51.024 2.48174 49.502 3.53574L48.6619 4.12372C47.9899 3.78972 46.9639 3.27974 45.8019 2.69974C44.41 2.01574 42.77 1.74172 41.116 1.73572C39.622 1.73972 38.1259 1.96971 36.8159 2.52371L31.9139 4.61572C31.1159 4.96172 29.8479 5.18773 28.5859 5.18173C27.3259 5.18773 26.06 4.96172 25.262 4.61572L20.356 2.52371C19.462 2.14171 18.5039 1.97972 17.5579 1.97772C16.4659 1.97972 15.38 2.19373 14.372 2.60373C13.366 3.01373 12.4299 3.61972 11.6859 4.45172L2.75397 14.4537C1.76397 15.5597 1.27193 16.9517 1.27393 18.3237C1.27193 19.9577 1.97195 21.5977 3.31995 22.7457L11.6519 29.8537L7.69996 33.9757C6.60996 35.1137 6.06794 36.5877 6.06794 38.0457C6.06594 39.5957 6.68192 41.1617 7.90192 42.3157L8.70392 43.0777C9.45792 43.7957 10.3679 44.2517 11.3179 44.4937C10.8419 45.3697 10.5819 46.3297 10.5839 47.2937C10.5819 48.8457 11.198 50.4117 12.416 51.5657H12.4139L13.218 52.3317C14.362 53.4157 15.8459 53.9577 17.3079 53.9557C18.0959 53.9557 18.8819 53.7997 19.6199 53.4897C19.8799 54.5417 20.4159 55.5437 21.2579 56.3437L22.062 57.1097C23.206 58.1937 24.6879 58.7357 26.1519 58.7337C27.2959 58.7337 28.4459 58.3977 29.4359 57.7417C29.7259 58.6737 30.222 59.5577 30.978 60.2737L31.7819 61.0397C32.9239 62.1237 34.4079 62.6657 35.8699 62.6637C37.4279 62.6637 38.9999 62.0538 40.1619 60.8398L43.656 57.1917L48.4019 61.5837C49.5379 62.6377 50.9959 63.1617 52.4359 63.1597C54.0179 63.1637 55.6119 62.5297 56.7759 61.2837L57.5319 60.4717C58.1859 59.7697 58.6139 58.9377 58.8619 58.0717L60.7 59.7677C61.838 60.8177 63.2939 61.3397 64.7319 61.3377C66.3159 61.3397 67.916 60.7057 69.08 59.4577L69.8319 58.6477C70.7019 57.7177 71.1919 56.5658 71.3419 55.3918C71.8279 55.5158 72.3199 55.5997 72.8159 55.5997C74.3999 55.5997 75.9939 54.9677 77.1599 53.7217L77.9139 52.9097C78.9699 51.7777 79.496 50.3257 79.494 48.8957C79.494 48.4517 79.4299 48.0097 79.3319 47.5717C80.6459 47.3977 81.9179 46.8117 82.8859 45.7717L83.6439 44.9597C84.6999 43.8297 85.2219 42.3757 85.2219 40.9437C85.2239 39.3677 84.5899 37.7777 83.3359 36.6197L81.918 35.3097L94.7059 21.1717C95.8579 19.9017 96.3859 18.2617 96.3879 16.6497ZM10.1339 39.9897C9.57992 39.4637 9.30395 38.7637 9.30195 38.0477C9.30395 37.3737 9.54594 36.7177 10.0419 36.1997L18.1379 27.7517C18.6659 27.2017 19.3679 26.9277 20.0919 26.9257C20.7659 26.9257 21.426 27.1697 21.95 27.6617L22.7499 28.4237C22.7499 28.4237 23.578 29.6477 23.58 30.3677C23.578 30.9057 23.4159 31.4297 23.1019 31.8837C23.0739 31.9117 14.364 40.9877 14.364 40.9877C13.902 41.3137 13.3539 41.4837 12.7979 41.4857C12.1199 41.4837 11.4579 41.2417 10.9399 40.7497L10.1339 39.9897ZM17.3079 50.7357C16.6319 50.7337 15.97 50.4917 15.45 49.9997L14.6459 49.2357L14.6439 49.2337C14.0939 48.7117 13.8159 48.0097 13.8159 47.2917C13.8159 46.6177 14.06 45.9617 14.554 45.4437C14.554 45.4437 25.3439 34.2117 25.4359 34.1037C25.9499 33.6077 26.6159 33.3517 27.3019 33.3517C27.9799 33.3517 28.6399 33.5957 29.1599 34.0857L29.9639 34.8517C30.5159 35.3737 30.792 36.0757 30.794 36.7937C30.792 37.4657 30.548 38.1258 30.054 38.6418L19.26 49.9117C18.734 50.4597 18.0319 50.7337 17.3079 50.7357ZM26.156 55.5137C25.478 55.5137 24.8179 55.2697 24.2979 54.7777L23.4919 54.0137C22.9399 53.4897 22.6619 52.7877 22.6619 52.0717C22.6619 51.4697 22.8659 50.8877 23.2579 50.4037L30.7719 42.5597C31.2779 42.1017 31.914 41.8617 32.572 41.8617C33.25 41.8637 33.9099 42.1057 34.4299 42.5977L35.236 43.3617C35.786 43.8837 36.0639 44.5857 36.0659 45.3037C36.0639 45.9777 35.8179 46.6357 35.3259 47.1537L28.1039 54.6897C27.5799 55.2357 26.8759 55.5117 26.156 55.5137ZM37.8239 58.6197C37.2979 59.1677 36.594 59.4437 35.872 59.4457C35.194 59.4457 34.5339 59.2017 34.0139 58.7097L33.21 57.9457C32.66 57.4237 32.382 56.7218 32.3799 56.0038C32.382 55.3298 32.6259 54.6697 33.1199 54.1557L37.6779 49.3957C38.2059 48.8477 38.908 48.5717 39.63 48.5717C40.306 48.5717 40.9679 48.8157 41.4879 49.3077L42.294 50.0717C42.844 50.5937 43.12 51.2938 43.122 52.0117C43.12 52.6857 42.876 53.3457 42.382 53.8617L37.8239 58.6197ZM81.278 42.7737L80.5239 43.5837C79.9959 44.1477 79.2799 44.4337 78.5479 44.4337C77.8819 44.4337 77.2319 44.1997 76.716 43.7217L63.984 31.9477L61.7819 34.3058L75.4099 46.9317C75.9759 47.4557 76.2619 48.1697 76.2659 48.8977C76.2619 49.5617 76.0279 50.2077 75.5499 50.7217L74.796 51.5317C74.268 52.0957 73.554 52.3797 72.82 52.3837C72.156 52.3817 71.5019 52.1477 70.9899 51.6717L58.254 39.8977L56.054 42.2557L67.356 52.7077C67.9 53.2297 68.1799 53.9237 68.1799 54.6377C68.1799 55.2997 67.946 55.9457 67.468 56.4597L66.7119 57.2717C66.1859 57.8357 65.468 58.1217 64.734 58.1237C64.068 58.1217 63.4159 57.8877 62.9019 57.4137L51.622 46.9997H51.6199L51.6179 46.9977L49.424 49.3597L49.426 49.3617L49.468 49.4017L55.1179 54.6158C55.6179 55.1298 55.878 55.7897 55.88 56.4717C55.878 57.1297 55.646 57.7738 55.168 58.2878L54.4119 59.0997C53.8839 59.6637 53.1719 59.9477 52.4399 59.9497C51.7759 59.9477 51.1239 59.7157 50.6099 59.2377L45.692 54.6837C46.12 53.8437 46.3579 52.9317 46.3579 52.0177C46.3599 50.4657 45.7439 48.9037 44.5259 47.7477L43.7199 46.9837C42.5779 45.8997 41.0959 45.3577 39.6339 45.3597C39.5219 45.3597 39.406 45.3858 39.296 45.3918C39.296 45.3658 39.3019 45.3357 39.3019 45.3097C39.3039 43.7577 37.4699 41.0378 37.4699 41.0378L36.666 40.2737C35.81 39.4637 34.768 38.9578 33.682 38.7538C33.906 38.1198 34.0319 37.4617 34.0319 36.7997C34.0319 35.2477 33.418 33.6838 32.2 32.5298L31.3959 31.7657C30.2519 30.6797 28.7699 30.1397 27.3079 30.1397C27.1379 30.1397 26.9679 30.1737 26.7999 30.1897C26.7539 28.6997 26.154 27.2117 24.986 26.1037V26.1017L24.184 25.3397C23.04 24.2537 21.558 23.7137 20.096 23.7137C18.536 23.7117 16.966 24.3237 15.804 25.5377L13.892 27.5317L5.42792 20.3137C4.81992 19.7937 4.51592 19.0717 4.51392 18.3337C4.51592 17.7137 4.72597 17.1077 5.17597 16.6037L14.1079 6.60172C14.4619 6.20372 14.9859 5.84373 15.5999 5.59573C16.2139 5.34573 16.912 5.20772 17.562 5.20972C18.13 5.20972 18.662 5.31373 19.088 5.49573L23.9919 7.58774C25.3739 8.16974 26.9799 8.40973 28.5919 8.41373C30.2079 8.40773 31.81 8.16974 33.192 7.58774L38.0939 5.49573C38.8479 5.16573 39.99 4.96173 41.124 4.96573C42.378 4.95773 43.6339 5.21572 44.3619 5.58972C44.8239 5.81972 45.2639 6.03773 45.6699 6.24173L40.6699 9.75574C39.0639 10.8857 38.198 12.6817 38.2 14.4937C38.198 15.6937 38.5779 16.9137 39.3519 17.9517L39.3499 17.9497L40.01 18.8377C41.264 20.5057 43.2179 21.3617 45.1719 21.3657C46.2759 21.3657 47.3999 21.0877 48.4019 20.4857L51.392 18.6917C52.002 18.3177 52.922 18.0837 53.874 18.0877C54.992 18.0817 56.1199 18.4117 56.7979 18.9097L65.0679 24.8397C66.9079 26.1577 69.9059 28.6037 71.5679 30.1437L81.142 38.9957C81.71 39.5217 81.9939 40.2317 81.9959 40.9617C81.9959 41.6117 81.758 42.2597 81.278 42.7737ZM92.3099 19.0237L79.5579 33.1237L73.768 27.7717C71.9539 26.0977 68.964 23.6557 66.958 22.2157L58.6899 16.2877C57.2879 15.2937 55.572 14.8657 53.874 14.8577C52.43 14.8617 50.9759 15.1757 49.7199 15.9237L46.7319 17.7197C46.2739 17.9957 45.7319 18.1357 45.1719 18.1377C44.1699 18.1417 43.164 17.6737 42.604 16.9097L41.9459 16.0237L41.9439 16.0217C41.5939 15.5497 41.4299 15.0197 41.4279 14.4837C41.4319 13.6717 41.806 12.8857 42.53 12.3757L51.3679 6.16571C52.1319 5.61171 53.4919 5.22373 54.7839 5.23373C55.6819 5.22973 56.538 5.40974 57.124 5.69974L64.32 9.18573C65.546 9.77373 66.9319 10.0157 68.3239 10.0177C70.1139 10.0097 71.924 9.61972 73.4139 8.70572L80.7639 4.13373C81.2319 3.84173 81.7959 3.68973 82.3839 3.68973C83.3759 3.68773 84.37 4.13773 84.934 4.87173L92.4699 14.5157C92.9039 15.0677 93.156 15.8477 93.156 16.6537C93.16 17.5537 92.8399 18.4417 92.3099 19.0237Z" fill="white"/>
</svg>
