<svg width="326" height="258" viewBox="0 0 326 258" fill="none" xmlns="http://www.w3.org/2000/svg">
<rect width="162.49" height="128.389" fill="black" fill-opacity="0" transform="translate(0.73584 1.02832) scale(2)"/>
<path d="M95.63 257.806C95.63 257.806 56.406 240.79 56.118 196.086C55.828 151.38 70.25 97.302 95.63 61.828C121.01 26.352 141.344 5.154 173.358 12.076C205.372 18.998 211.862 47.552 211.862 59.664C211.862 71.776 206.67 115.906 171.196 153.112C135.72 190.318 101.334 199.118 76.45 201.134C46.744 203.542 15.4501 182.098 9.82606 126.29C4.20206 70.482 29.294 48.85 39.676 39.332C50.06 29.814 69.094 22.46 100.676 36.736C132.258 51.014 144.802 79.566 145.236 89.518C145.67 99.468 146.968 103.362 136.152 119.802C136.152 119.802 157.352 98.172 141.776 70.916C126.202 43.662 91.592 21.164 62.606 23.76C33.62 26.356 0.307998 62.698 0.739998 113.746C1.174 164.796 28.72 221.586 95.918 206.76C124.608 200.43 151.64 188.006 188.5 147.058C227.728 103.48 238.564 25.306 193.984 7.00404C152.884 -9.86796 127.5 13.81 120.578 19.002C113.656 24.192 81.068 58.918 65.494 100.018C50.514 139.55 47.492 170.828 49.364 195.804C51.174 219.96 64.626 246.126 95.63 257.806Z" fill="#468EC0"/>
<path d="M221.488 199.006H226.696V199.632H222.222V203.824H226.32V204.45H222.222V209.548H221.488V199.006Z" fill="#1D1D1B"/>
<path d="M232.574 199.006V205.372C232.574 208.046 233.824 209.078 235.39 209.078C237.126 209.078 238.33 207.952 238.33 205.372V199.006H239.08V205.294C239.08 208.532 237.328 209.72 235.342 209.72C233.498 209.72 231.84 208.64 231.84 205.42V199.008L232.574 199.006Z" fill="#1D1D1B"/>
<path d="M244.754 209.546V199.004H245.458L249.572 205.228C250.416 206.542 251.026 207.526 251.542 208.544L251.574 208.528C251.464 207.106 251.448 205.902 251.448 204.244V199.004H252.184V209.546H251.48L247.46 203.416C246.678 202.198 245.96 201.086 245.412 200.006L245.38 200.022C245.46 201.32 245.474 202.462 245.474 204.214V209.546H244.754Z" fill="#1D1D1B"/>
<path d="M257.856 199.148C258.654 199.022 259.56 198.928 260.546 198.928C262.468 198.928 263.924 199.446 264.798 200.368C265.644 201.244 266.112 202.416 266.112 204.012C266.112 205.558 265.69 206.968 264.736 208.014C263.798 209.032 262.218 209.626 260.186 209.626C259.372 209.626 258.606 209.61 257.856 209.532V199.148ZM258.59 208.922C259.028 208.984 259.638 209 260.296 209C263.674 209 265.348 207.108 265.348 204.06C265.364 201.386 263.878 199.556 260.5 199.556C259.686 199.556 259.046 199.634 258.592 199.712V208.922H258.59Z" fill="#1D1D1B"/>
<path d="M272.148 205.856L270.85 209.546H270.084L273.9 199.004H274.62L278.42 209.546H277.654L276.324 205.856H272.148ZM276.088 205.23L274.806 201.712C274.556 200.976 274.416 200.446 274.26 199.852H274.228C274.07 200.462 273.898 201.008 273.68 201.682L272.382 205.232L276.088 205.23Z" fill="#1D1D1B"/>
<path d="M290.162 209.172C289.63 209.454 288.614 209.718 287.33 209.718C284.782 209.718 282.34 208.078 282.34 204.338C282.34 201.212 284.358 198.834 287.674 198.834C289.018 198.834 289.8 199.132 290.13 199.304L289.88 199.93C289.348 199.664 288.582 199.476 287.692 199.476C284.844 199.476 283.108 201.32 283.108 204.354C283.108 207.216 284.75 209.062 287.566 209.062C288.474 209.062 289.35 208.874 289.942 208.576L290.162 209.172Z" fill="#1D1D1B"/>
<path d="M295.804 199.006V209.548H295.068V199.006H295.804Z" fill="#1D1D1B"/>
<path d="M310.112 204.168C310.112 207.89 307.844 209.72 305.404 209.72C302.808 209.72 300.806 207.672 300.806 204.388C300.806 200.93 302.886 198.836 305.528 198.836C308.188 198.834 310.112 200.898 310.112 204.168ZM301.574 204.356C301.574 206.732 302.95 209.094 305.452 209.094C307.954 209.094 309.346 206.826 309.346 204.216C309.346 201.994 308.126 199.462 305.482 199.462C302.808 199.46 301.574 201.9 301.574 204.356ZM307.468 196.614L305.42 198.382H304.794L306.326 196.614H307.468Z" fill="#1D1D1B"/>
<path d="M315.114 209.546V199.004H315.818L319.93 205.228C320.774 206.542 321.386 207.526 321.9 208.544L321.93 208.528C321.822 207.106 321.806 205.902 321.806 204.244V199.004H322.54V209.546H321.836L317.816 203.416C317.034 202.198 316.316 201.086 315.768 200.006L315.736 200.022C315.814 201.32 315.83 202.462 315.83 204.214V209.546H315.114Z" fill="#1D1D1B"/>
<path d="M109.368 223.782H121.96V225.99H111.746V232.272H121.282V234.48H111.746V241.61H122.47V243.818H109.368V223.782Z" fill="#1D1D1B"/>
<path d="M125.95 222.422H128.158V243.814H125.95V222.422Z" fill="#1D1D1B"/>
<path d="M140.408 233.712C140.408 233.108 140.39 232.542 140.352 232.012C140.314 231.486 140.296 231.004 140.296 230.57H142.39C142.39 230.928 142.4 231.286 142.418 231.644C142.436 232.002 142.446 232.37 142.446 232.748H142.502C142.654 232.428 142.866 232.116 143.138 231.814C143.412 231.514 143.736 231.244 144.114 231.008C144.49 230.772 144.916 230.584 145.388 230.442C145.858 230.302 146.368 230.232 146.916 230.232C147.632 230.232 148.232 230.32 148.712 230.5C149.194 230.68 149.594 230.896 149.916 231.152C150.236 231.406 150.486 231.68 150.666 231.972C150.844 232.264 150.992 232.522 151.104 232.75C151.594 231.958 152.16 231.34 152.802 230.896C153.444 230.454 154.274 230.232 155.292 230.232C156.236 230.232 157.028 230.358 157.668 230.612C158.31 230.868 158.828 231.236 159.224 231.716C159.62 232.198 159.904 232.782 160.074 233.47C160.244 234.158 160.328 234.928 160.328 235.776V243.814H158.12V235.89C158.12 235.438 158.074 234.994 157.98 234.56C157.886 234.126 157.716 233.738 157.47 233.398C157.224 233.06 156.894 232.786 156.48 232.578C156.064 232.37 155.536 232.268 154.896 232.268C154.426 232.268 153.98 232.362 153.566 232.552C153.152 232.74 152.788 233.006 152.478 233.344C152.168 233.682 151.922 234.094 151.742 234.574C151.562 235.056 151.472 235.588 151.472 236.172V243.812H149.264V236.314C149.264 234.842 149.066 233.8 148.67 233.186C148.274 232.574 147.624 232.268 146.718 232.268C146 232.268 145.382 232.392 144.864 232.636C144.344 232.882 143.92 233.228 143.59 233.682C143.26 234.136 143.014 234.672 142.854 235.296C142.694 235.918 142.614 236.606 142.614 237.362V243.814H140.406L140.408 233.712Z" fill="#1D1D1B"/>
<path d="M176.062 240.674C176.062 241.278 176.08 241.844 176.118 242.372C176.156 242.9 176.174 243.382 176.174 243.816H174.08C174.08 243.458 174.072 243.1 174.052 242.74C174.032 242.382 174.022 242.014 174.022 241.636H173.966C173.816 241.958 173.604 242.268 173.33 242.57C173.056 242.872 172.73 243.142 172.354 243.376C171.976 243.612 171.552 243.8 171.08 243.942C170.608 244.082 170.098 244.154 169.552 244.154C168.684 244.154 167.934 244.022 167.302 243.758C166.67 243.494 166.146 243.128 165.732 242.656C165.316 242.184 165.01 241.614 164.812 240.944C164.614 240.274 164.516 239.542 164.516 238.75V230.574H166.724V238.526C166.724 239.638 166.97 240.516 167.46 241.156C167.95 241.798 168.714 242.118 169.752 242.118C170.468 242.118 171.086 241.994 171.606 241.748C172.124 241.502 172.55 241.154 172.878 240.702C173.208 240.248 173.454 239.712 173.614 239.09C173.774 238.468 173.856 237.778 173.856 237.024V230.572H176.064L176.062 240.674Z" fill="#1D1D1B"/>
<path d="M180.25 233.712C180.25 233.108 180.23 232.542 180.194 232.012C180.156 231.486 180.138 231.004 180.138 230.57H182.232C182.232 230.928 182.24 231.286 182.26 231.644C182.278 232.002 182.288 232.37 182.288 232.748H182.344C182.494 232.428 182.706 232.116 182.98 231.814C183.254 231.514 183.578 231.244 183.956 231.008C184.332 230.772 184.756 230.584 185.23 230.442C185.7 230.302 186.21 230.232 186.758 230.232C187.626 230.232 188.376 230.364 189.008 230.628C189.64 230.892 190.162 231.258 190.578 231.732C190.994 232.202 191.3 232.774 191.498 233.442C191.696 234.112 191.794 234.842 191.794 235.636V243.814H189.588V235.862C189.588 234.748 189.342 233.872 188.852 233.23C188.362 232.59 187.598 232.27 186.56 232.27C185.842 232.27 185.226 232.394 184.706 232.638C184.186 232.882 183.762 233.23 183.434 233.684C183.102 234.138 182.858 234.674 182.698 235.298C182.538 235.92 182.458 236.608 182.458 237.364V243.816H180.25V233.712Z" fill="#1D1D1B"/>
<path d="M206.932 241.464C206.516 242.218 205.862 242.856 204.966 243.374C204.07 243.894 203.028 244.152 201.84 244.152C200.916 244.152 200.048 243.978 199.236 243.63C198.424 243.28 197.722 242.794 197.128 242.172C196.534 241.55 196.068 240.814 195.728 239.964C195.39 239.116 195.22 238.192 195.22 237.192C195.22 236.192 195.39 235.268 195.728 234.418C196.068 233.57 196.54 232.834 197.144 232.21C197.748 231.586 198.478 231.102 199.338 230.752C200.196 230.404 201.144 230.23 202.182 230.23C203.144 230.23 204.024 230.428 204.828 230.824C205.628 231.22 206.332 231.778 206.936 232.494H206.992V222.42H209.2V243.812H206.992V241.464H206.932ZM206.988 237.194C206.988 236.496 206.88 235.85 206.662 235.254C206.446 234.66 206.128 234.142 205.714 233.698C205.298 233.254 204.802 232.906 204.228 232.65C203.652 232.396 203.006 232.27 202.29 232.27C201.574 232.27 200.928 232.396 200.352 232.65C199.776 232.906 199.28 233.254 198.866 233.698C198.45 234.142 198.134 234.66 197.916 235.254C197.7 235.848 197.592 236.496 197.592 237.194C197.592 237.892 197.7 238.538 197.916 239.132C198.134 239.726 198.45 240.246 198.866 240.688C199.28 241.132 199.776 241.48 200.352 241.734C200.928 241.988 201.572 242.116 202.29 242.116C203.008 242.116 203.654 241.988 204.228 241.734C204.802 241.48 205.298 241.13 205.714 240.688C206.128 240.244 206.444 239.726 206.662 239.132C206.88 238.538 206.988 237.89 206.988 237.194Z" fill="#1D1D1B"/>
<path d="M212.506 237.194C212.506 236.156 212.686 235.214 213.044 234.364C213.402 233.514 213.892 232.784 214.514 232.17C215.138 231.558 215.882 231.08 216.75 230.742C217.618 230.404 218.562 230.234 219.58 230.234C220.598 230.234 221.542 230.404 222.41 230.742C223.278 231.08 224.024 231.558 224.646 232.17C225.268 232.784 225.76 233.514 226.118 234.364C226.476 235.214 226.656 236.156 226.656 237.194C226.656 238.232 226.476 239.174 226.118 240.024C225.76 240.872 225.268 241.604 224.646 242.216C224.024 242.828 223.278 243.306 222.41 243.646C221.542 243.986 220.6 244.154 219.58 244.154C218.56 244.154 217.618 243.986 216.75 243.646C215.882 243.306 215.138 242.83 214.514 242.216C213.892 241.602 213.4 240.872 213.044 240.024C212.686 239.172 212.506 238.23 212.506 237.194ZM214.882 237.194C214.882 237.892 214.99 238.538 215.208 239.132C215.424 239.726 215.742 240.246 216.156 240.688C216.57 241.13 217.066 241.48 217.642 241.734C218.218 241.988 218.864 242.116 219.58 242.116C220.296 242.116 220.942 241.988 221.518 241.734C222.094 241.48 222.59 241.13 223.004 240.688C223.418 240.246 223.734 239.726 223.952 239.132C224.17 238.538 224.278 237.892 224.278 237.194C224.278 236.496 224.17 235.85 223.952 235.254C223.736 234.66 223.42 234.142 223.004 233.698C222.588 233.254 222.094 232.906 221.518 232.65C220.942 232.396 220.298 232.27 219.58 232.27C218.862 232.27 218.216 232.396 217.642 232.65C217.066 232.906 216.572 233.254 216.156 233.698C215.74 234.142 215.424 234.66 215.208 235.254C214.992 235.848 214.882 236.496 214.882 237.194Z" fill="#1D1D1B"/>
<path d="M249.772 241.408C248.98 242.426 248.112 243.14 247.168 243.544C246.224 243.948 245.13 244.152 243.886 244.152C242.848 244.152 241.914 243.968 241.084 243.6C240.254 243.232 239.552 242.738 238.976 242.116C238.4 241.492 237.958 240.756 237.646 239.908C237.334 239.06 237.178 238.154 237.178 237.192C237.178 236.172 237.348 235.234 237.688 234.376C238.028 233.518 238.5 232.782 239.104 232.168C239.708 231.556 240.424 231.078 241.254 230.74C242.084 230.402 242.99 230.232 243.97 230.232C244.894 230.232 245.742 230.386 246.516 230.698C247.29 231.008 247.954 231.462 248.51 232.056C249.066 232.65 249.496 233.378 249.798 234.236C250.098 235.094 250.25 236.07 250.25 237.164V237.872H239.554C239.592 238.438 239.728 238.98 239.964 239.498C240.2 240.016 240.506 240.47 240.884 240.856C241.26 241.242 241.704 241.55 242.214 241.776C242.722 242.002 243.28 242.116 243.884 242.116C244.846 242.116 245.656 241.946 246.318 241.606C246.978 241.266 247.572 240.766 248.1 240.106L249.772 241.408ZM247.876 236.004C247.838 234.872 247.47 233.966 246.772 233.288C246.074 232.61 245.112 232.27 243.886 232.27C242.66 232.27 241.67 232.61 240.916 233.288C240.162 233.966 239.708 234.872 239.558 236.004H247.876Z" fill="#1D1D1B"/>
<path d="M253.958 240.334C254.392 240.88 254.868 241.314 255.386 241.634C255.906 241.956 256.56 242.116 257.352 242.116C257.692 242.116 258.036 242.078 258.386 242.002C258.734 241.926 259.052 241.804 259.334 241.634C259.618 241.464 259.844 241.252 260.014 240.998C260.182 240.744 260.268 240.438 260.268 240.08C260.268 239.722 260.186 239.428 260.026 239.202C259.866 238.976 259.654 238.784 259.39 238.622C259.126 238.462 258.824 238.334 258.484 238.242C258.144 238.148 257.796 238.062 257.438 237.986C256.814 237.856 256.222 237.702 255.654 237.534C255.088 237.364 254.594 237.142 254.168 236.868C253.744 236.594 253.404 236.242 253.15 235.808C252.896 235.374 252.768 234.818 252.768 234.138C252.768 233.498 252.91 232.93 253.192 232.44C253.474 231.95 253.852 231.544 254.324 231.224C254.794 230.902 255.324 230.658 255.908 230.488C256.492 230.318 257.096 230.234 257.72 230.234C258.662 230.234 259.534 230.422 260.338 230.8C261.14 231.176 261.766 231.79 262.218 232.638L260.38 233.854C260.096 233.384 259.724 233 259.262 232.708C258.8 232.416 258.238 232.27 257.578 232.27C257.276 232.27 256.97 232.308 256.658 232.384C256.346 232.46 256.068 232.572 255.824 232.724C255.578 232.874 255.376 233.068 255.216 233.304C255.054 233.54 254.974 233.808 254.974 234.11C254.974 234.392 255.064 234.634 255.244 234.83C255.422 235.028 255.668 235.204 255.98 235.354C256.292 235.506 256.648 235.638 257.054 235.75C257.46 235.864 257.88 235.958 258.314 236.034C258.898 236.148 259.456 236.292 259.984 236.472C260.512 236.652 260.974 236.892 261.37 237.194C261.766 237.496 262.078 237.872 262.304 238.324C262.53 238.778 262.642 239.334 262.642 239.994C262.642 240.748 262.492 241.39 262.19 241.918C261.888 242.446 261.486 242.876 260.986 243.206C260.486 243.536 259.92 243.778 259.288 243.928C258.656 244.078 258.01 244.154 257.35 244.154C256.218 244.154 255.242 243.98 254.422 243.632C253.602 243.282 252.862 242.636 252.2 241.692L253.958 240.334Z" fill="#1D1D1B"/>
<path d="M275.152 233.882C274.68 233.316 274.17 232.906 273.624 232.65C273.076 232.396 272.472 232.27 271.812 232.27C271.076 232.27 270.426 232.396 269.86 232.65C269.294 232.906 268.826 233.258 268.46 233.712C268.092 234.166 267.814 234.688 267.624 235.282C267.436 235.876 267.342 236.512 267.342 237.192C267.342 237.87 267.45 238.508 267.668 239.102C267.884 239.696 268.186 240.22 268.574 240.672C268.96 241.124 269.428 241.478 269.974 241.732C270.52 241.986 271.134 242.114 271.812 242.114C273.264 242.114 274.388 241.566 275.18 240.472L276.822 242.028C276.18 242.764 275.426 243.302 274.558 243.642C273.69 243.982 272.774 244.15 271.812 244.15C270.794 244.15 269.86 243.982 269.012 243.642C268.162 243.302 267.44 242.822 266.846 242.198C266.252 241.574 265.79 240.84 265.46 239.99C265.13 239.142 264.964 238.206 264.964 237.19C264.964 236.19 265.13 235.266 265.46 234.416C265.79 233.566 266.256 232.832 266.862 232.208C267.464 231.584 268.186 231.1 269.026 230.75C269.864 230.402 270.794 230.228 271.814 230.228C272.796 230.228 273.724 230.398 274.602 230.736C275.48 231.074 276.248 231.604 276.908 232.32L275.152 233.882Z" fill="#1D1D1B"/>
<path d="M279.37 233.712C279.37 233.108 279.35 232.542 279.314 232.012C279.276 231.486 279.258 231.004 279.258 230.57H281.352C281.352 230.928 281.36 231.286 281.38 231.644C281.4 232.002 281.41 232.37 281.41 232.748H281.466C281.616 232.428 281.828 232.116 282.102 231.814C282.376 231.514 282.7 231.244 283.078 231.008C283.454 230.772 283.878 230.584 284.35 230.442C284.822 230.302 285.33 230.232 285.878 230.232C286.028 230.232 286.18 230.242 286.33 230.26C286.482 230.28 286.632 230.316 286.784 230.374L286.642 232.61C286.266 232.496 285.868 232.44 285.454 232.44C284.096 232.44 283.11 232.878 282.496 233.756C281.882 234.634 281.578 235.836 281.578 237.364V243.816H279.37V233.712Z" fill="#1D1D1B"/>
<path d="M289.016 225.394C289.016 224.96 289.172 224.582 289.484 224.262C289.794 223.942 290.178 223.782 290.63 223.782C291.084 223.782 291.464 223.942 291.776 224.262C292.088 224.582 292.244 224.96 292.244 225.394C292.244 225.866 292.092 226.252 291.79 226.554C291.488 226.856 291.1 227.008 290.63 227.008C290.158 227.008 289.772 226.858 289.47 226.554C289.168 226.252 289.016 225.866 289.016 225.394ZM289.526 230.572H291.734V243.814H289.526V230.572Z" fill="#1D1D1B"/>
<path d="M296.006 222.422H298.214V232.496H298.27C298.874 231.78 299.576 231.222 300.378 230.826C301.178 230.43 302.06 230.232 303.024 230.232C304.062 230.232 305.01 230.406 305.868 230.754C306.726 231.104 307.456 231.588 308.062 232.212C308.666 232.834 309.138 233.57 309.476 234.42C309.816 235.268 309.986 236.194 309.986 237.194C309.986 238.194 309.816 239.118 309.476 239.966C309.138 240.816 308.67 241.552 308.076 242.174C307.482 242.796 306.78 243.282 305.968 243.632C305.158 243.98 304.29 244.154 303.366 244.154C302.178 244.154 301.134 243.896 300.24 243.376C299.344 242.858 298.688 242.22 298.274 241.466H298.218V243.816H296.01V222.422H296.006ZM298.212 237.194C298.212 237.892 298.322 238.538 298.538 239.132C298.754 239.726 299.072 240.246 299.486 240.688C299.902 241.132 300.396 241.48 300.972 241.734C301.548 241.988 302.194 242.116 302.91 242.116C303.626 242.116 304.274 241.988 304.848 241.734C305.422 241.48 305.918 241.13 306.334 240.688C306.75 240.246 307.066 239.726 307.282 239.132C307.498 238.538 307.608 237.892 307.608 237.194C307.608 236.496 307.5 235.85 307.282 235.254C307.066 234.66 306.748 234.142 306.334 233.698C305.92 233.254 305.424 232.906 304.848 232.65C304.272 232.396 303.626 232.27 302.91 232.27C302.194 232.27 301.548 232.396 300.972 232.65C300.396 232.906 299.902 233.254 299.486 233.698C299.072 234.142 298.754 234.66 298.538 235.254C298.322 235.848 298.212 236.496 298.212 237.194Z" fill="#1D1D1B"/>
<path d="M325.236 241.408C324.444 242.426 323.574 243.14 322.632 243.544C321.688 243.95 320.594 244.152 319.35 244.152C318.312 244.152 317.378 243.968 316.548 243.6C315.718 243.232 315.014 242.738 314.44 242.116C313.864 241.492 313.422 240.756 313.11 239.908C312.798 239.06 312.644 238.154 312.644 237.192C312.644 236.172 312.814 235.234 313.152 234.376C313.492 233.518 313.964 232.782 314.568 232.168C315.172 231.556 315.888 231.078 316.718 230.74C317.548 230.402 318.454 230.232 319.434 230.232C320.358 230.232 321.206 230.386 321.98 230.698C322.754 231.008 323.418 231.462 323.976 232.056C324.534 232.65 324.962 233.378 325.264 234.236C325.564 235.094 325.716 236.07 325.716 237.164V237.872H315.02C315.058 238.438 315.194 238.98 315.43 239.498C315.666 240.016 315.972 240.47 316.348 240.856C316.724 241.242 317.17 241.55 317.678 241.776C318.188 242.002 318.744 242.116 319.348 242.116C320.31 242.116 321.12 241.946 321.782 241.606C322.442 241.266 323.036 240.766 323.564 240.106L325.236 241.408ZM323.34 236.004C323.302 234.872 322.934 233.966 322.236 233.288C321.538 232.61 320.576 232.27 319.35 232.27C318.124 232.27 317.134 232.61 316.378 233.288C315.622 233.966 315.17 234.872 315.02 236.004H323.34Z" fill="#1D1D1B"/>
</svg>
