<svg width="124" height="143" viewBox="0 0 124 143" fill="none" xmlns="http://www.w3.org/2000/svg">
<path d="M52.7122 142.094C52.7122 142.094 31.0462 132.696 30.8882 108.002C30.7282 83.3091 38.6942 53.438 52.7122 33.8431C66.7322 14.2481 77.9632 2.53905 95.6472 6.36205C113.33 10.186 116.915 25.9581 116.915 32.6491C116.915 39.3391 114.047 63.7141 94.4522 84.2651C74.8572 104.817 55.8642 109.676 42.1192 110.79C25.7112 112.119 8.4252 100.275 5.3182 69.4491C2.2112 38.6231 16.0722 26.6741 21.8072 21.4171C27.5412 16.1601 38.0572 12.098 55.5002 19.982C72.9442 27.869 79.8742 43.64 80.1132 49.136C80.3522 54.632 81.0692 56.7831 75.0952 65.8641C75.0952 65.8641 86.8042 53.916 78.2012 38.861C69.5982 23.806 50.4812 11.381 34.4712 12.814C18.4592 14.248 0.0601834 34.3201 0.298183 62.5191C0.537183 90.7161 15.7532 122.084 52.8702 113.896C68.7182 110.4 83.6492 103.537 104.009 80.918C125.677 56.847 131.662 13.667 107.037 3.55805C84.3362 -5.76095 70.3152 7.31805 66.4912 10.185C62.6682 13.052 44.6682 32.234 36.0652 54.935C27.7902 76.772 26.1212 94.048 27.1552 107.843C28.1562 121.189 35.5862 135.642 52.7122 142.094Z" fill="#468ec0"/>
</svg>
