<svg width="184" height="74" viewBox="0 0 184 74" fill="none" xmlns="http://www.w3.org/2000/svg">
<path d="M27.0499 73.339C27.0499 73.339 15.8989 68.501 15.8169 55.792C15.7349 43.083 19.8339 27.709 27.0499 17.623C34.2659 7.53799 40.0459 1.51099 49.1479 3.47899C58.2489 5.44699 60.0939 13.565 60.0939 17.008C60.0939 20.452 58.6179 32.998 48.5329 43.575C38.4479 54.152 28.6719 56.654 21.5979 57.227C13.1529 57.911 4.25592 51.815 2.65792 35.949C1.05892 20.083 8.19192 13.934 11.1439 11.228C14.0959 8.52199 19.5069 6.43099 28.4859 10.49C37.4639 14.549 41.0309 22.666 41.1539 25.495C41.2769 28.324 41.6459 29.431 38.5709 34.104C38.5709 34.104 44.5979 27.955 40.1699 20.206C35.7419 12.458 25.9019 6.06299 17.6629 6.79999C9.42192 7.53799 -0.0480839 17.869 0.0749162 32.383C0.197916 46.896 8.02892 63.041 27.1329 58.826C35.2889 57.026 42.9739 53.494 53.4529 41.853C64.6059 29.464 67.6859 7.23999 55.0119 2.03599C43.3279 -2.76001 36.1099 3.97099 34.1439 5.44699C32.1759 6.92299 22.9109 16.796 18.4829 28.48C14.2249 39.719 13.3659 48.611 13.8979 55.711C14.4119 62.579 18.2359 70.018 27.0499 73.339Z" fill="#468ec0"/>
<path d="M67.679 31.4598H70.48V31.7968H68.074V34.0508H70.278V34.3878H68.074V37.1298H67.679V31.4598Z" fill="#1D1D1B"/>
<path d="M73.6428 31.4598V34.8838C73.6428 36.3218 74.3158 36.8778 75.1568 36.8778C76.0908 36.8778 76.7388 36.2718 76.7388 34.8838V31.4598H77.1428V34.8418C77.1428 36.5828 76.1998 37.2218 75.1318 37.2218C74.1388 37.2218 73.2478 36.6418 73.2478 34.9088V31.4598H73.6428Z" fill="#1D1D1B"/>
<path d="M80.1938 37.1298V31.4598H80.5728L82.7849 34.8078C83.2389 35.5148 83.5668 36.0448 83.8448 36.5918L83.8618 36.5828C83.8028 35.8178 83.7948 35.1698 83.7948 34.2778V31.4598H84.1898V37.1298H83.8108L81.6488 33.8318C81.2288 33.1758 80.8418 32.5788 80.5468 31.9978L80.5308 32.0068C80.5728 32.7048 80.5808 33.3188 80.5808 34.2618V37.1298H80.1938Z" fill="#1D1D1B"/>
<path d="M87.2429 31.5368C87.6719 31.4688 88.1599 31.4188 88.6899 31.4188C89.7239 31.4188 90.5059 31.6958 90.9779 32.1928C91.4319 32.6638 91.6839 33.2948 91.6839 34.1528C91.6839 34.9848 91.4569 35.7418 90.9439 36.3058C90.4389 36.8528 89.5899 37.1728 88.4959 37.1728C88.0589 37.1728 87.6459 37.1638 87.2429 37.1218V31.5368ZM87.6379 36.7938C87.8729 36.8278 88.2019 36.8358 88.5549 36.8358C90.3719 36.8358 91.2719 35.8178 91.2719 34.1778C91.2809 32.7388 90.4809 31.7548 88.6639 31.7548C88.2269 31.7548 87.8819 31.7968 87.6379 31.8388V36.7938Z" fill="#1D1D1B"/>
<path d="M94.9298 35.1448L94.2318 37.1308H93.8198L95.8718 31.4608H96.2588L98.3038 37.1308H97.8908L97.1758 35.1448H94.9298ZM97.0488 34.8088L96.3588 32.9158C96.2248 32.5208 96.1488 32.2348 96.0648 31.9148H96.0478C95.9638 32.2428 95.8708 32.5378 95.7538 32.8988L95.0548 34.8088H97.0488Z" fill="#1D1D1B"/>
<path d="M104.619 36.9278C104.333 37.0788 103.786 37.2218 103.097 37.2218C101.725 37.2218 100.413 36.3388 100.413 34.3288C100.413 32.6458 101.498 31.3668 103.282 31.3668C104.005 31.3668 104.426 31.5268 104.602 31.6198L104.468 31.9558C104.182 31.8128 103.769 31.7118 103.29 31.7118C101.759 31.7118 100.825 32.7048 100.825 34.3368C100.825 35.8758 101.708 36.8688 103.223 36.8688C103.711 36.8688 104.182 36.7678 104.501 36.6078L104.619 36.9278Z" fill="#1D1D1B"/>
<path d="M107.655 31.4598H107.26V37.1298H107.655V31.4598Z" fill="#1D1D1B"/>
<path d="M115.352 34.2359C115.352 36.2379 114.132 37.2219 112.82 37.2219C111.423 37.2219 110.347 36.1199 110.347 34.3539C110.347 32.4949 111.465 31.3669 112.887 31.3669C114.316 31.3669 115.352 32.4789 115.352 34.2359ZM110.759 34.3369C110.759 35.6159 111.499 36.8859 112.845 36.8859C114.191 36.8859 114.94 35.6659 114.94 34.2609C114.94 33.0669 114.283 31.7038 112.862 31.7038C111.423 31.7038 110.759 33.0159 110.759 34.3369ZM113.93 30.1729L112.828 31.1239H112.492L113.316 30.1729H113.93Z" fill="#1D1D1B"/>
<path d="M118.041 37.1298V31.4598H118.42L120.632 34.8078C121.086 35.5148 121.414 36.0448 121.692 36.5918L121.709 36.5828C121.65 35.8178 121.642 35.1698 121.642 34.2778V31.4598H122.037V37.1298H121.658L119.496 33.8318C119.076 33.1758 118.689 32.5788 118.394 31.9978L118.378 32.0068C118.42 32.7048 118.428 33.3188 118.428 34.2618V37.1298H118.041Z" fill="#1D1D1B"/>
<path d="M67.291 44.7869H74.065V45.9739H68.571V49.3529H73.7V50.5399H68.571V54.3759H74.339V55.5629H67.291V44.7869Z" fill="#1D1D1B"/>
<path d="M77.3979 44.0559H76.2109V55.5629H77.3979V44.0559Z" fill="#1D1D1B"/>
<path d="M83.989 50.1288C83.989 49.8038 83.979 49.4998 83.959 49.2158C83.938 48.9318 83.928 48.6728 83.928 48.4398H85.054C85.054 48.6318 85.059 48.8248 85.07 49.0178C85.08 49.2108 85.085 49.4088 85.085 49.6118H85.115C85.196 49.4388 85.311 49.2718 85.458 49.1088C85.605 48.9468 85.78 48.8018 85.983 48.6748C86.186 48.5488 86.414 48.4468 86.668 48.3708C86.921 48.2948 87.195 48.2568 87.49 48.2568C87.875 48.2568 88.198 48.3048 88.456 48.4008C88.715 48.4978 88.931 48.6148 89.103 48.7518C89.276 48.8888 89.41 49.0358 89.507 49.1928C89.603 49.3498 89.682 49.4898 89.743 49.6118C90.006 49.1848 90.311 48.8528 90.656 48.6148C91.001 48.3758 91.447 48.2568 91.995 48.2568C92.502 48.2568 92.929 48.3248 93.274 48.4618C93.619 48.5988 93.898 48.7968 94.111 49.0558C94.324 49.3148 94.476 49.6288 94.568 49.9998C94.659 50.3698 94.704 50.7838 94.704 51.2398V55.5628H93.517V51.3008C93.517 51.0568 93.492 50.8188 93.441 50.5858C93.39 50.3518 93.299 50.1438 93.167 49.9618C93.035 49.7788 92.857 49.6318 92.635 49.5198C92.411 49.4088 92.127 49.3528 91.782 49.3528C91.528 49.3528 91.29 49.4038 91.067 49.5048C90.843 49.6068 90.648 49.7488 90.481 49.9308C90.313 50.1138 90.181 50.3338 90.085 50.5928C89.989 50.8518 89.94 51.1388 89.94 51.4528V55.5628H88.753V51.5288C88.753 50.7378 88.647 50.1768 88.434 49.8468C88.22 49.5178 87.87 49.3528 87.383 49.3528C86.997 49.3528 86.665 49.4188 86.386 49.5508C86.107 49.6828 85.879 49.8698 85.701 50.1138C85.524 50.3568 85.392 50.6458 85.306 50.9808C85.219 51.3158 85.176 51.6868 85.176 52.0928V55.5628H83.989V50.1288Z" fill="#1D1D1B"/>
<path d="M103.167 53.8738C103.167 54.1988 103.177 54.5028 103.197 54.7868C103.218 55.0708 103.228 55.3298 103.228 55.5628H102.102C102.102 55.3708 102.096 55.1778 102.086 54.9848C102.076 54.7918 102.071 54.5948 102.071 54.3908H102.041C101.959 54.5638 101.845 54.7308 101.698 54.8938C101.551 55.0558 101.376 55.2008 101.173 55.3278C100.97 55.4548 100.742 55.5558 100.488 55.6318C100.234 55.7078 99.96 55.7458 99.666 55.7458C99.199 55.7458 98.796 55.6748 98.456 55.5328C98.116 55.3908 97.835 55.1928 97.611 54.9388C97.388 54.6858 97.223 54.3788 97.117 54.0188C97.01 53.6588 96.957 53.2648 96.957 52.8388V48.4398H98.144V52.7168C98.144 53.3158 98.276 53.7878 98.54 54.1328C98.804 54.4778 99.214 54.6498 99.773 54.6498C100.158 54.6498 100.491 54.5838 100.77 54.4518C101.049 54.3208 101.277 54.1328 101.455 53.8888C101.632 53.6458 101.764 53.3568 101.85 53.0218C101.936 52.6868 101.98 52.3158 101.98 51.9098V48.4398H103.167V53.8738Z" fill="#1D1D1B"/>
<path d="M105.419 50.1288C105.419 49.8038 105.409 49.4998 105.389 49.2158C105.368 48.9318 105.358 48.6728 105.358 48.4398H106.484C106.484 48.6318 106.489 48.8248 106.5 49.0178C106.51 49.2108 106.515 49.4088 106.515 49.6118H106.545C106.626 49.4388 106.741 49.2718 106.888 49.1088C107.035 48.9468 107.21 48.8018 107.413 48.6748C107.616 48.5488 107.844 48.4468 108.098 48.3708C108.351 48.2948 108.625 48.2568 108.92 48.2568C109.387 48.2568 109.79 48.3278 110.13 48.4698C110.47 48.6118 110.751 48.8098 110.975 49.0638C111.198 49.3168 111.363 49.6238 111.469 49.9838C111.576 50.3448 111.629 50.7378 111.629 51.1638V55.5628H110.442V51.2858C110.442 50.6868 110.31 50.2148 110.046 49.8698C109.782 49.5248 109.371 49.3528 108.813 49.3528C108.427 49.3528 108.095 49.4188 107.816 49.5508C107.537 49.6828 107.309 49.8698 107.131 50.1138C106.954 50.3568 106.822 50.6458 106.736 50.9808C106.649 51.3158 106.606 51.6868 106.606 52.0928V55.5628H105.419V50.1288Z" fill="#1D1D1B"/>
<path d="M119.803 54.2988H119.773C119.549 54.7048 119.197 55.0478 118.715 55.3268C118.233 55.6058 117.672 55.7448 117.033 55.7448C116.536 55.7448 116.069 55.6508 115.632 55.4638C115.196 55.2758 114.818 55.0148 114.499 54.6798C114.179 54.3448 113.928 53.9488 113.745 53.4918C113.563 53.0348 113.471 52.5378 113.471 51.9998C113.471 51.4618 113.563 50.9648 113.745 50.5078C113.928 50.0518 114.181 49.6558 114.506 49.3208C114.831 48.9858 115.224 48.7248 115.686 48.5368C116.147 48.3488 116.657 48.2558 117.216 48.2558C117.733 48.2558 118.207 48.3618 118.639 48.5748C119.07 48.7878 119.448 49.0878 119.773 49.4728H119.803V44.0548H120.99V55.5618H119.803V54.2988ZM119.803 52.0008C119.803 51.6258 119.745 51.2778 119.628 50.9578C119.511 50.6388 119.341 50.3598 119.118 50.1208C118.895 49.8828 118.629 49.6948 118.319 49.5578C118.009 49.4208 117.662 49.3518 117.277 49.3518C116.891 49.3518 116.543 49.4208 116.234 49.5578C115.924 49.6948 115.658 49.8828 115.435 50.1208C115.211 50.3598 115.041 50.6388 114.925 50.9578C114.808 51.2778 114.75 51.6258 114.75 52.0008C114.75 52.3758 114.808 52.7238 114.925 53.0438C115.041 53.3628 115.211 53.6428 115.435 53.8808C115.658 54.1188 115.924 54.3068 116.234 54.4438C116.543 54.5808 116.891 54.6498 117.277 54.6498C117.662 54.6498 118.009 54.5808 118.319 54.4438C118.629 54.3068 118.895 54.1188 119.118 53.8808C119.341 53.6428 119.511 53.3628 119.628 53.0438C119.745 52.7248 119.803 52.3758 119.803 52.0008Z" fill="#1D1D1B"/>
<path d="M122.771 52.0008C122.771 51.4428 122.868 50.9358 123.06 50.4788C123.253 50.0218 123.517 49.6288 123.852 49.2988C124.187 48.9698 124.588 48.7128 125.055 48.5308C125.521 48.3478 126.029 48.2568 126.577 48.2568C127.125 48.2568 127.632 48.3478 128.099 48.5308C128.565 48.7128 128.966 48.9698 129.301 49.2988C129.636 49.6288 129.9 50.0218 130.093 50.4788C130.285 50.9358 130.382 51.4428 130.382 52.0008C130.382 52.5588 130.285 53.0658 130.093 53.5228C129.9 53.9798 129.636 54.3728 129.301 54.7028C128.966 55.0318 128.565 55.2888 128.099 55.4708C127.632 55.6538 127.125 55.7448 126.577 55.7448C126.029 55.7448 125.521 55.6538 125.055 55.4708C124.588 55.2888 124.187 55.0318 123.852 54.7028C123.517 54.3728 123.253 53.9798 123.06 53.5228C122.868 53.0658 122.771 52.5598 122.771 52.0008ZM124.05 52.0008C124.05 52.3758 124.108 52.7238 124.225 53.0438C124.342 53.3628 124.512 53.6428 124.735 53.8808C124.958 54.1188 125.224 54.3068 125.534 54.4438C125.843 54.5808 126.191 54.6498 126.577 54.6498C126.962 54.6498 127.31 54.5808 127.619 54.4438C127.929 54.3068 128.195 54.1188 128.418 53.8808C128.641 53.6428 128.811 53.3628 128.928 53.0438C129.045 52.7238 129.103 52.3758 129.103 52.0008C129.103 51.6258 129.045 51.2778 128.928 50.9578C128.811 50.6388 128.641 50.3598 128.418 50.1208C128.195 49.8828 127.929 49.6948 127.619 49.5578C127.31 49.4208 126.962 49.3518 126.577 49.3518C126.191 49.3518 125.843 49.4208 125.534 49.5578C125.224 49.6948 124.958 49.8828 124.735 50.1208C124.512 50.3598 124.342 50.6388 124.225 50.9578C124.108 51.2778 124.05 51.6258 124.05 52.0008Z" fill="#1D1D1B"/>
<path d="M142.817 54.2688C142.391 54.8168 141.924 55.1998 141.417 55.4178C140.909 55.6358 140.321 55.7458 139.651 55.7458C139.093 55.7458 138.591 55.6468 138.144 55.4488C137.697 55.2508 137.319 54.9848 137.01 54.6498C136.7 54.3148 136.462 53.9188 136.295 53.4618C136.127 53.0058 136.044 52.5188 136.044 52.0008C136.044 51.4528 136.135 50.9488 136.317 50.4868C136.5 50.0248 136.754 49.6288 137.079 49.2998C137.403 48.9698 137.789 48.7128 138.235 48.5308C138.682 48.3478 139.169 48.2568 139.697 48.2568C140.194 48.2568 140.65 48.3408 141.067 48.5078C141.482 48.6758 141.84 48.9188 142.139 49.2388C142.439 49.5578 142.67 49.9488 142.832 50.4108C142.994 50.8718 143.076 51.3978 143.076 51.9858V52.3658H137.322C137.342 52.6708 137.416 52.9628 137.543 53.2418C137.67 53.5208 137.834 53.7638 138.038 53.9718C138.24 54.1808 138.479 54.3448 138.753 54.4668C139.027 54.5888 139.326 54.6498 139.651 54.6498C140.168 54.6498 140.605 54.5578 140.96 54.3758C141.315 54.1928 141.635 53.9238 141.919 53.5688L142.817 54.2688ZM141.797 51.3618C141.777 50.7528 141.579 50.2658 141.203 49.9008C140.828 49.5348 140.31 49.3528 139.651 49.3528C138.991 49.3528 138.459 49.5348 138.053 49.9008C137.647 50.2658 137.403 50.7528 137.322 51.3618H141.797Z" fill="#1D1D1B"/>
<path d="M145.07 53.6908C145.303 53.9858 145.56 54.2188 145.839 54.3908C146.118 54.5638 146.47 54.6498 146.897 54.6498C147.079 54.6498 147.264 54.6298 147.452 54.5888C147.64 54.5488 147.81 54.4828 147.962 54.3908C148.114 54.2998 148.236 54.1858 148.327 54.0488C148.418 53.9118 148.464 53.7468 148.464 53.5538C148.464 53.3608 148.421 53.2038 148.335 53.0818C148.248 52.9598 148.134 52.8558 147.992 52.7698C147.85 52.6838 147.688 52.6158 147.505 52.5648C147.323 52.5138 147.135 52.4678 146.942 52.4278C146.607 52.3568 146.288 52.2748 145.983 52.1838C145.679 52.0928 145.412 51.9738 145.184 51.8268C144.956 51.6788 144.773 51.4888 144.636 51.2558C144.499 51.0218 144.431 50.7228 144.431 50.3578C144.431 50.0128 144.507 49.7078 144.659 49.4438C144.811 49.1808 145.014 48.9628 145.268 48.7898C145.521 48.6168 145.806 48.4858 146.12 48.3938C146.435 48.3028 146.759 48.2568 147.094 48.2568C147.602 48.2568 148.071 48.3588 148.502 48.5618C148.933 48.7648 149.271 49.0938 149.515 49.5508L148.525 50.2048C148.373 49.9518 148.172 49.7458 147.924 49.5888C147.675 49.4318 147.373 49.3528 147.018 49.3528C146.856 49.3528 146.691 49.3728 146.524 49.4138C146.356 49.4548 146.206 49.5148 146.075 49.5968C145.942 49.6778 145.833 49.7818 145.747 49.9088C145.661 50.0358 145.618 50.1798 145.618 50.3418C145.618 50.4948 145.666 50.6238 145.762 50.7298C145.859 50.8368 145.991 50.9308 146.158 51.0118C146.326 51.0928 146.518 51.1638 146.737 51.2248C146.955 51.2858 147.18 51.3368 147.414 51.3768C147.728 51.4378 148.028 51.5168 148.312 51.6128C148.596 51.7098 148.845 51.8388 149.058 52.0018C149.271 52.1638 149.438 52.3668 149.56 52.6098C149.682 52.8538 149.743 53.1528 149.743 53.5078C149.743 53.9138 149.661 54.2588 149.499 54.5428C149.337 54.8278 149.121 55.0578 148.852 55.2358C148.583 55.4138 148.279 55.5428 147.939 55.6238C147.599 55.7048 147.251 55.7458 146.897 55.7458C146.288 55.7458 145.762 55.6518 145.321 55.4638C144.88 55.2768 144.481 54.9288 144.126 54.4218L145.07 53.6908Z" fill="#1D1D1B"/>
<path d="M156.47 50.2208C156.216 49.9158 155.942 49.6958 155.648 49.5588C155.354 49.4218 155.029 49.3528 154.674 49.3528C154.278 49.3528 153.928 49.4218 153.624 49.5588C153.319 49.6958 153.068 49.8858 152.87 50.1298C152.672 50.3728 152.522 50.6548 152.421 50.9738C152.32 51.2938 152.269 51.6358 152.269 52.0018C152.269 52.3668 152.327 52.7098 152.444 53.0288C152.561 53.3488 152.723 53.6298 152.931 53.8738C153.139 54.1168 153.39 54.3078 153.684 54.4448C153.979 54.5818 154.309 54.6498 154.674 54.6498C155.455 54.6498 156.059 54.3558 156.485 53.7668L157.368 54.6048C157.023 54.9998 156.617 55.2888 156.15 55.4718C155.683 55.6548 155.191 55.7458 154.674 55.7458C154.126 55.7458 153.624 55.6548 153.167 55.4718C152.71 55.2888 152.322 55.0308 152.003 54.6958C151.683 54.3608 151.434 53.9648 151.257 53.5088C151.079 53.0518 150.99 52.5498 150.99 52.0018C150.99 51.4638 151.079 50.9668 151.257 50.5098C151.434 50.0528 151.685 49.6578 152.01 49.3228C152.335 48.9878 152.723 48.7268 153.175 48.5388C153.626 48.3508 154.126 48.2568 154.674 48.2568C155.201 48.2568 155.701 48.3488 156.173 48.5318C156.645 48.7138 157.058 48.9978 157.414 49.3838L156.47 50.2208Z" fill="#1D1D1B"/>
<path d="M158.738 50.1288C158.738 49.8038 158.728 49.4998 158.708 49.2158C158.687 48.9318 158.677 48.6728 158.677 48.4398H159.803C159.803 48.6318 159.808 48.8248 159.819 49.0178C159.829 49.2108 159.834 49.4088 159.834 49.6118H159.864C159.945 49.4388 160.06 49.2718 160.207 49.1088C160.354 48.9468 160.529 48.8018 160.732 48.6748C160.935 48.5488 161.163 48.4468 161.417 48.3708C161.67 48.2948 161.944 48.2568 162.239 48.2568C162.32 48.2568 162.401 48.2618 162.482 48.2718C162.564 48.2818 162.645 48.3018 162.726 48.3328L162.65 49.5348C162.447 49.4738 162.234 49.4438 162.011 49.4438C161.28 49.4438 160.75 49.6798 160.42 50.1518C160.09 50.6238 159.925 51.2708 159.925 52.0928V55.5628H158.738V50.1288Z" fill="#1D1D1B"/>
<path d="M163.928 45.6539C163.928 45.4209 164.012 45.2179 164.179 45.0449C164.346 44.8729 164.552 44.7869 164.796 44.7869C165.039 44.7869 165.245 44.8729 165.412 45.0449C165.579 45.2179 165.663 45.4209 165.663 45.6539C165.663 45.9079 165.582 46.1159 165.42 46.2779C165.257 46.4409 165.049 46.5219 164.796 46.5219C164.542 46.5219 164.334 46.4409 164.171 46.2779C164.009 46.1159 163.928 45.9079 163.928 45.6539ZM164.202 48.4399H165.389V55.5629H164.202V48.4399Z" fill="#1D1D1B"/>
<path d="M167.687 44.0569H168.874V49.4749H168.904C169.229 49.0899 169.607 48.7899 170.038 48.5769C170.47 48.3639 170.944 48.2579 171.462 48.2579C172.02 48.2579 172.53 48.3509 172.991 48.5389C173.453 48.7269 173.846 48.9879 174.171 49.3229C174.496 49.6579 174.749 50.0539 174.932 50.5099C175.115 50.9669 175.206 51.4639 175.206 52.0019C175.206 52.5399 175.115 53.0369 174.932 53.4939C174.749 53.9499 174.498 54.3459 174.179 54.6819C173.859 55.0169 173.481 55.2779 173.044 55.4659C172.608 55.6529 172.141 55.7469 171.644 55.7469C171.005 55.7469 170.444 55.6079 169.962 55.3289C169.48 55.0499 169.128 54.7069 168.904 54.3009H168.874V55.5649H167.687V44.0569ZM168.874 52.0009C168.874 52.3759 168.932 52.7239 169.049 53.0439C169.166 53.3629 169.336 53.6429 169.559 53.8809C169.782 54.1189 170.048 54.3069 170.358 54.4439C170.668 54.5809 171.015 54.6499 171.401 54.6499C171.786 54.6499 172.134 54.5809 172.443 54.4439C172.753 54.3069 173.019 54.1189 173.242 53.8809C173.466 53.6429 173.636 53.3629 173.752 53.0439C173.869 52.7239 173.927 52.3759 173.927 52.0009C173.927 51.6259 173.869 51.2779 173.752 50.9579C173.636 50.6389 173.466 50.3599 173.242 50.1209C173.019 49.8829 172.753 49.6949 172.443 49.5579C172.134 49.4209 171.786 49.3519 171.401 49.3519C171.015 49.3519 170.668 49.4209 170.358 49.5579C170.048 49.6949 169.782 49.8829 169.559 50.1209C169.336 50.3599 169.166 50.6389 169.049 50.9579C168.933 51.2779 168.874 51.6259 168.874 52.0009Z" fill="#1D1D1B"/>
<path d="M183.411 54.2688C182.985 54.8168 182.518 55.1998 182.011 55.4178C181.503 55.6358 180.915 55.7458 180.245 55.7458C179.687 55.7458 179.185 55.6468 178.738 55.4488C178.291 55.2508 177.913 54.9848 177.604 54.6498C177.294 54.3148 177.056 53.9188 176.889 53.4618C176.721 53.0058 176.638 52.5188 176.638 52.0008C176.638 51.4528 176.729 50.9488 176.911 50.4868C177.094 50.0248 177.348 49.6288 177.673 49.2998C177.997 48.9698 178.383 48.7128 178.829 48.5308C179.276 48.3478 179.763 48.2568 180.291 48.2568C180.788 48.2568 181.244 48.3408 181.661 48.5078C182.076 48.6758 182.434 48.9188 182.733 49.2388C183.033 49.5578 183.264 49.9488 183.426 50.4108C183.588 50.8718 183.67 51.3978 183.67 51.9858V52.3658H177.916C177.936 52.6708 178.01 52.9628 178.137 53.2418C178.264 53.5208 178.428 53.7638 178.632 53.9718C178.834 54.1808 179.073 54.3448 179.347 54.4668C179.621 54.5888 179.92 54.6498 180.245 54.6498C180.762 54.6498 181.199 54.5578 181.554 54.3758C181.909 54.1928 182.229 53.9238 182.513 53.5688L183.411 54.2688ZM182.391 51.3618C182.371 50.7528 182.173 50.2658 181.797 49.9008C181.422 49.5348 180.904 49.3528 180.245 49.3528C179.585 49.3528 179.053 49.5348 178.647 49.9008C178.241 50.2658 177.997 50.7528 177.916 51.3618H182.391Z" fill="#1D1D1B"/>
</svg>
